G04*
G04 #@! TF.GenerationSoftware,Altium Limited,Altium Designer,21.8.1 (53)*
G04*
G04 Layer_Physical_Order=1*
G04 Layer_Color=255*
%FSLAX25Y25*%
%MOIN*%
G70*
G04*
G04 #@! TF.SameCoordinates,70880257-2F83-41F6-BC9D-4F7E7A3CF3A8*
G04*
G04*
G04 #@! TF.FilePolarity,Positive*
G04*
G01*
G75*
%ADD14C,0.01000*%
%ADD15R,0.05512X0.03543*%
%ADD16R,0.02520X0.02559*%
%ADD17R,0.06102X0.02362*%
%ADD18R,0.07087X0.04724*%
%ADD19R,0.03740X0.01772*%
%ADD20R,0.02559X0.02520*%
%ADD21R,0.02756X0.02362*%
%ADD37C,0.01600*%
%ADD38C,0.01200*%
%ADD39C,0.05000*%
%ADD40C,0.06437*%
%ADD41R,0.07087X0.07087*%
%ADD42C,0.07087*%
%ADD43C,0.06555*%
%ADD44C,0.15000*%
%ADD45C,0.06299*%
G04:AMPARAMS|DCode=46|XSize=62.99mil|YSize=62.99mil|CornerRadius=15.75mil|HoleSize=0mil|Usage=FLASHONLY|Rotation=180.000|XOffset=0mil|YOffset=0mil|HoleType=Round|Shape=RoundedRectangle|*
%AMROUNDEDRECTD46*
21,1,0.06299,0.03150,0,0,180.0*
21,1,0.03150,0.06299,0,0,180.0*
1,1,0.03150,-0.01575,0.01575*
1,1,0.03150,0.01575,0.01575*
1,1,0.03150,0.01575,-0.01575*
1,1,0.03150,-0.01575,-0.01575*
%
%ADD46ROUNDEDRECTD46*%
%ADD47C,0.02400*%
%ADD48C,0.12598*%
G36*
X141000Y344000D02*
X134756Y337756D01*
Y339087D01*
X131500D01*
Y336315D01*
X131000D01*
Y335815D01*
X127244D01*
Y333543D01*
X130543D01*
X125000Y328000D01*
X100000D01*
Y345000D01*
Y349000D01*
X105841Y354841D01*
X106587Y354094D01*
X107783Y353295D01*
X109111Y352745D01*
X110521Y352465D01*
X111959D01*
X113369Y352745D01*
X114698Y353295D01*
X115893Y354094D01*
X116910Y355111D01*
X117709Y356307D01*
X118259Y357635D01*
X118539Y359045D01*
Y360483D01*
X118259Y361893D01*
X117709Y363222D01*
X116910Y364417D01*
X116163Y365163D01*
X118000Y367000D01*
X141000D01*
Y344000D01*
D02*
G37*
%LPC*%
G36*
X137575Y366416D02*
X136500D01*
Y362744D01*
X140172D01*
Y363819D01*
X140083Y364491D01*
X139824Y365117D01*
X139411Y365655D01*
X138873Y366068D01*
X138247Y366327D01*
X137575Y366416D01*
D02*
G37*
G36*
X135500D02*
X134425D01*
X133753Y366327D01*
X133127Y366068D01*
X132589Y365655D01*
X132176Y365117D01*
X131917Y364491D01*
X131828Y363819D01*
Y362744D01*
X135500D01*
Y366416D01*
D02*
G37*
G36*
X140172Y361744D02*
X136500D01*
Y358072D01*
X137575D01*
X138247Y358161D01*
X138873Y358420D01*
X139411Y358833D01*
X139824Y359371D01*
X140083Y359997D01*
X140172Y360669D01*
Y361744D01*
D02*
G37*
G36*
X135500D02*
X131828D01*
Y360669D01*
X131917Y359997D01*
X132176Y359371D01*
X132589Y358833D01*
X133127Y358420D01*
X133753Y358161D01*
X134425Y358072D01*
X135500D01*
Y361744D01*
D02*
G37*
G36*
X110598Y341228D02*
X110500D01*
Y337185D01*
X114543D01*
Y337283D01*
X114234Y338439D01*
X113636Y339475D01*
X112790Y340321D01*
X111754Y340919D01*
X110598Y341228D01*
D02*
G37*
G36*
X109500D02*
X109402D01*
X108246Y340919D01*
X107210Y340321D01*
X106365Y339475D01*
X105766Y338439D01*
X105457Y337283D01*
Y337185D01*
X109500D01*
Y341228D01*
D02*
G37*
G36*
X130500Y339087D02*
X127244D01*
Y336815D01*
X130500D01*
Y339087D01*
D02*
G37*
G36*
X114543Y336185D02*
X110500D01*
Y332142D01*
X110598D01*
X111754Y332451D01*
X112790Y333050D01*
X113636Y333895D01*
X114234Y334931D01*
X114543Y336087D01*
Y336185D01*
D02*
G37*
G36*
X109500D02*
X105457D01*
Y336087D01*
X105766Y334931D01*
X106365Y333895D01*
X107210Y333050D01*
X108246Y332451D01*
X109402Y332142D01*
X109500D01*
Y336185D01*
D02*
G37*
%LPD*%
D14*
X131000Y325685D02*
X131171Y325514D01*
X136977D01*
X220000Y332000D02*
Y336228D01*
X219821Y318179D02*
Y319442D01*
Y318179D02*
X220000Y318000D01*
Y314772D02*
Y318000D01*
X108000Y254087D02*
Y260000D01*
X117375Y269375D02*
Y271789D01*
X108000Y260000D02*
X117375Y269375D01*
X125586Y280000D02*
X147000D01*
X117375Y271789D02*
X125586Y280000D01*
X108000Y254087D02*
X110043Y252043D01*
X109000Y249182D02*
X110043Y248138D01*
X109000Y250818D02*
X110043Y251862D01*
X109000Y249182D02*
Y250818D01*
X110043Y217000D02*
Y248138D01*
X112051Y249992D02*
X120256D01*
X110043Y251862D02*
Y252043D01*
X112043Y250000D02*
X112051Y249992D01*
X112000Y250000D02*
X112043D01*
X156114Y300114D02*
Y303886D01*
X156000Y304000D02*
X156114Y303886D01*
X130000Y270000D02*
X181000D01*
Y269600D02*
Y270000D01*
X156114Y300114D02*
X156228Y300000D01*
X160165Y289000D02*
X167913D01*
X174418Y280000D02*
X181209Y273209D01*
X147000Y280000D02*
X174418D01*
X147000Y291000D02*
X153000Y297000D01*
X220772Y172028D02*
X225972D01*
X226000Y172000D01*
X220744Y172055D02*
X220772Y172028D01*
X220744Y209055D02*
X220772Y209028D01*
X225972D01*
X226000Y209000D01*
X225972Y246028D02*
X226000Y246000D01*
X220744Y246055D02*
X220772Y246028D01*
X225972D01*
X120189Y257933D02*
X120256Y257866D01*
X112067Y257933D02*
X120189D01*
X112000Y258000D02*
X112067Y257933D01*
X120189Y220933D02*
X120256Y220866D01*
X114067Y220933D02*
X120189D01*
X114000Y221000D02*
X114067Y220933D01*
X113067Y183933D02*
X120189D01*
X120256Y183866D01*
X113000Y184000D02*
X113067Y183933D01*
X110043Y180000D02*
Y211138D01*
X109300Y211882D02*
X110043Y211138D01*
X158713Y295256D02*
X159968Y294000D01*
X158713Y295256D02*
Y295802D01*
X157515Y297000D02*
X158713Y295802D01*
X159968Y294000D02*
X160165D01*
X153000Y297000D02*
X157515D01*
X147000Y280000D02*
Y291000D01*
X179000Y293000D02*
X185000D01*
X166000D02*
X170339D01*
X165000Y292000D02*
X166000Y293000D01*
X160165Y294000D02*
X163043D01*
X164602Y295559D01*
X170339D01*
X167913Y289000D02*
X169354Y290441D01*
X170339D01*
X220795Y283000D02*
X228000D01*
X220740Y283055D02*
X220795Y283000D01*
X230000Y275000D02*
Y281000D01*
X228000Y283000D02*
X230000Y281000D01*
X225000Y270000D02*
X230000Y275000D01*
X210000Y270000D02*
X225000D01*
X220740Y291740D02*
X221000Y292000D01*
X220740Y286992D02*
Y291740D01*
X234000Y251000D02*
Y254000D01*
X230957Y247957D02*
X234000Y251000D01*
X220744Y253929D02*
X229000D01*
X216000Y222476D02*
X217072Y223547D01*
X216000Y196000D02*
Y222476D01*
X210000Y190000D02*
X216000Y196000D01*
X110043Y214862D02*
Y217000D01*
X109300Y211882D02*
Y214118D01*
X110043Y214862D01*
X112000Y213000D02*
X120248D01*
X120256Y212992D01*
X110043Y177862D02*
Y180000D01*
X109300Y174882D02*
X110043Y174138D01*
Y152022D02*
Y174138D01*
X109300Y174882D02*
Y177118D01*
X110043Y177862D01*
X112000Y176000D02*
X112043D01*
X112051Y175992D01*
X120256D01*
X112004Y138996D02*
X120252D01*
X120256Y138992D01*
X112000Y139000D02*
X112004Y138996D01*
X111929Y253929D02*
X120256D01*
X110043Y252043D02*
X111929Y253929D01*
X230957Y181862D02*
Y213000D01*
Y176000D02*
Y178138D01*
X231700Y178882D02*
Y181118D01*
X230957Y178138D02*
X231700Y178882D01*
X230957Y181862D02*
X231700Y181118D01*
X228957Y180000D02*
X229000D01*
X228886Y179929D02*
X228957Y180000D01*
X220744Y179929D02*
X228886D01*
X230957Y160017D02*
Y176000D01*
X220744Y175992D02*
X230949D01*
X230957Y176000D01*
Y218862D02*
Y247957D01*
Y215138D02*
X231700Y215882D01*
X230957Y218862D02*
X231700Y218118D01*
X230957Y213000D02*
Y215138D01*
X231700Y215882D02*
Y218118D01*
X228929Y216929D02*
X229000Y217000D01*
X220744Y216929D02*
X228929D01*
X230949Y212992D02*
X230957Y213000D01*
X220744Y212992D02*
X230949D01*
X231000Y143000D02*
Y159973D01*
X226937Y138937D02*
X231000Y143000D01*
X226874Y142874D02*
X228000Y144000D01*
X221000Y142874D02*
X226874D01*
X110043Y180000D02*
X110114Y179929D01*
X120256D01*
X110043Y217000D02*
X110114Y216929D01*
X120256D01*
X110000Y146000D02*
Y151978D01*
X110043Y152022D01*
X110000Y146000D02*
X113071Y142929D01*
X120256D01*
X220744Y249992D02*
X228921D01*
X230957Y247957D01*
Y160017D02*
X231000Y159973D01*
X221000Y138937D02*
X226937D01*
X217618Y223547D02*
X218874Y224803D01*
X220744D01*
X217072Y223547D02*
X217618D01*
X217122Y187122D02*
X220063D01*
X220744Y187803D01*
X210000Y180000D02*
X217122Y187122D01*
X210000Y170000D02*
X221000Y159000D01*
Y150748D02*
Y159000D01*
X120122Y147000D02*
X120256Y146866D01*
X113000Y147000D02*
X120122D01*
X221000Y135000D02*
X227000D01*
D15*
X131000Y336315D02*
D03*
Y325685D02*
D03*
D16*
X220000Y336228D02*
D03*
Y339772D02*
D03*
Y314772D02*
D03*
Y311228D02*
D03*
D17*
X120256Y261803D02*
D03*
Y257866D02*
D03*
Y253929D02*
D03*
Y249992D02*
D03*
Y246055D02*
D03*
Y242118D02*
D03*
X220744Y261803D02*
D03*
Y257866D02*
D03*
Y253929D02*
D03*
Y249992D02*
D03*
Y246055D02*
D03*
Y242118D02*
D03*
X221000Y131063D02*
D03*
Y135000D02*
D03*
Y138937D02*
D03*
Y142874D02*
D03*
Y146811D02*
D03*
Y150748D02*
D03*
X220740Y279118D02*
D03*
Y283055D02*
D03*
Y286992D02*
D03*
X120256Y150803D02*
D03*
Y146866D02*
D03*
Y142929D02*
D03*
Y138992D02*
D03*
Y135055D02*
D03*
Y131118D02*
D03*
X220744Y205118D02*
D03*
Y209055D02*
D03*
Y212992D02*
D03*
Y216929D02*
D03*
Y220866D02*
D03*
Y224803D02*
D03*
X120256D02*
D03*
Y220866D02*
D03*
Y216929D02*
D03*
Y212992D02*
D03*
Y209055D02*
D03*
Y205118D02*
D03*
Y187803D02*
D03*
Y183866D02*
D03*
Y179929D02*
D03*
Y175992D02*
D03*
Y172055D02*
D03*
Y168118D02*
D03*
X220744D02*
D03*
Y172055D02*
D03*
Y175992D02*
D03*
Y179929D02*
D03*
Y183866D02*
D03*
Y187803D02*
D03*
D18*
X105000Y237000D02*
D03*
Y266921D02*
D03*
X236000Y237000D02*
D03*
Y266921D02*
D03*
X236256Y155866D02*
D03*
Y125945D02*
D03*
X236000Y274000D02*
D03*
Y292110D02*
D03*
X105000Y126000D02*
D03*
Y155921D02*
D03*
X236000Y229921D02*
D03*
Y200000D02*
D03*
X105000D02*
D03*
Y229921D02*
D03*
Y163000D02*
D03*
Y192921D02*
D03*
X236000D02*
D03*
Y163000D02*
D03*
D19*
X170339Y290441D02*
D03*
Y293000D02*
D03*
Y295559D02*
D03*
X179000D02*
D03*
Y293000D02*
D03*
Y290441D02*
D03*
D20*
X156228Y300000D02*
D03*
X159772D02*
D03*
D21*
X155835Y289000D02*
D03*
X160165D02*
D03*
X155835Y294000D02*
D03*
X160165D02*
D03*
D37*
X221500Y309500D02*
X228000Y316000D01*
X215000Y303000D02*
X221500Y309500D01*
X220000Y311209D02*
Y311228D01*
Y311209D02*
X221500Y309709D01*
Y309500D02*
Y309709D01*
X200000Y247937D02*
Y282000D01*
X131006Y150778D02*
X131783Y150000D01*
X132000D01*
X121572Y150778D02*
X131006D01*
X193878Y285078D02*
Y288122D01*
Y274878D02*
Y285078D01*
X159772Y299000D02*
X178000D01*
X179000Y289220D02*
X189220D01*
X161497Y147503D02*
X202497D01*
X159000Y150000D02*
X161497Y147503D01*
X215000Y289000D02*
Y303000D01*
X193878Y285078D02*
X193878Y285078D01*
X212103D01*
X215078Y280055D02*
Y282103D01*
Y280055D02*
X216015Y279118D01*
X220740D01*
X212103Y285078D02*
X215078Y282103D01*
X184000Y265000D02*
X193878Y274878D01*
X179000Y246000D02*
X198063D01*
X200000Y247937D01*
X141000Y208000D02*
X179000Y246000D01*
X141000Y201000D02*
Y208000D01*
X130000Y190000D02*
X141000Y201000D01*
X195000Y316000D02*
X196000Y317000D01*
X195000Y304000D02*
Y316000D01*
X196000Y315000D02*
Y317000D01*
X137000Y265000D02*
X184000D01*
X121000Y266000D02*
Y266216D01*
X123000Y268216D02*
Y273000D01*
X121000Y266216D02*
X123000Y268216D01*
X184000Y265000D02*
X197000Y252000D01*
X202497Y184878D02*
Y229848D01*
Y175000D02*
Y184878D01*
Y147503D02*
Y175000D01*
X198000Y234345D02*
Y235000D01*
Y234345D02*
X202497Y229848D01*
X220744Y235256D02*
Y242118D01*
Y235256D02*
X221000Y235000D01*
X220744Y193938D02*
X220841Y193841D01*
X210000Y140000D02*
X211025Y138975D01*
X202497Y147503D02*
X210000Y140000D01*
X222995Y163005D02*
Y167737D01*
Y163005D02*
X223000Y163000D01*
X220744Y168118D02*
X222614D01*
X222995Y167737D01*
X191000Y291000D02*
X193878Y288122D01*
X189220Y289220D02*
X191000Y291000D01*
Y295000D01*
X185213Y296000D02*
X190000D01*
X191000Y295000D01*
X202497Y175000D02*
X202497Y175000D01*
X202497Y184878D02*
X202497Y184878D01*
X211025Y136975D02*
Y138975D01*
X220915Y131148D02*
X221000Y131063D01*
X216852Y131148D02*
X220915D01*
X211025Y136975D02*
X216852Y131148D01*
X158000Y285000D02*
X176000D01*
X156270Y286730D02*
X158000Y285000D01*
X176000D02*
X179000Y288000D01*
Y289220D01*
X179241Y295800D02*
X185013D01*
X179000Y295559D02*
X179241Y295800D01*
X185013D02*
X185213Y296000D01*
X155835Y289000D02*
X156270Y288565D01*
Y286730D02*
Y288565D01*
X155835Y289000D02*
Y294000D01*
X178000Y299000D02*
X179000Y298000D01*
Y295559D02*
Y298000D01*
X120256Y261803D02*
X120419D01*
X121000Y262384D01*
Y266000D01*
X218874Y242118D02*
X220744D01*
Y193938D02*
Y205118D01*
D38*
X125000Y170304D02*
Y203889D01*
X123970Y169274D02*
X125000Y170304D01*
Y203889D02*
X130000Y208889D01*
X150000Y140000D02*
Y205000D01*
X120256Y131118D02*
X141118D01*
X150000Y140000D01*
Y205000D02*
X185000Y240000D01*
X210000D01*
X130000Y208889D02*
Y210000D01*
X120837Y205699D02*
X123699D01*
X120256Y205118D02*
X120837Y205699D01*
X123699D02*
X125000Y207000D01*
Y215000D01*
X120256Y168118D02*
X122126D01*
X123282Y169274D01*
X123970D01*
X125000Y215000D02*
X130000Y220000D01*
X124000Y236000D02*
Y238000D01*
Y236000D02*
X130000Y230000D01*
X122126Y242118D02*
X122707Y241537D01*
X120256Y242118D02*
X122126D01*
X122707Y239293D02*
Y241537D01*
Y239293D02*
X124000Y238000D01*
X119941Y151118D02*
X120256Y150803D01*
X119941Y151118D02*
Y164164D01*
X120000Y188059D02*
Y196000D01*
Y188059D02*
X120256Y187803D01*
Y224803D02*
Y235256D01*
X121000Y236000D01*
X217030Y260647D02*
X217480Y261097D01*
X217715Y261222D02*
X218293D01*
X217590Y261097D02*
X217715Y261222D01*
X217030Y260647D02*
X217030D01*
X218293Y261222D02*
X218874Y261803D01*
X215122Y258738D02*
X217030Y260647D01*
X217480Y261097D02*
X217590D01*
X218874Y261803D02*
X220744D01*
X215122Y253997D02*
Y258738D01*
D39*
X140000Y347000D02*
X217000D01*
X136000Y351000D02*
X140000Y347000D01*
X136000Y351000D02*
Y362244D01*
X217000Y347000D02*
X228000Y336000D01*
D40*
D03*
Y326000D02*
D03*
Y316000D02*
D03*
D41*
X110000Y317000D02*
D03*
D42*
Y336685D02*
D03*
D43*
X130000Y170000D02*
D03*
Y180000D02*
D03*
Y190000D02*
D03*
Y200000D02*
D03*
Y210000D02*
D03*
Y220000D02*
D03*
Y230000D02*
D03*
Y240000D02*
D03*
Y250000D02*
D03*
Y260000D02*
D03*
Y270000D02*
D03*
Y280000D02*
D03*
X210000D02*
D03*
Y270000D02*
D03*
Y260000D02*
D03*
Y250000D02*
D03*
Y240000D02*
D03*
Y230000D02*
D03*
Y220000D02*
D03*
Y210000D02*
D03*
Y200000D02*
D03*
Y190000D02*
D03*
Y180000D02*
D03*
Y170000D02*
D03*
Y160000D02*
D03*
Y150000D02*
D03*
Y140000D02*
D03*
Y130000D02*
D03*
D44*
X205000Y115000D02*
D03*
X135000D02*
D03*
X205000Y295000D02*
D03*
X135000D02*
D03*
D45*
X156000Y315000D02*
D03*
X176000D02*
D03*
X196000D02*
D03*
X186000D02*
D03*
X166000D02*
D03*
X146000D02*
D03*
X136000D02*
D03*
X186000Y362244D02*
D03*
X166000D02*
D03*
X146000D02*
D03*
X156000D02*
D03*
X176000D02*
D03*
X196000D02*
D03*
X206000D02*
D03*
D46*
Y315000D02*
D03*
X136000Y362244D02*
D03*
D47*
X136977Y325514D02*
D03*
X220000Y332000D02*
D03*
X219821Y319442D02*
D03*
X112000Y250000D02*
D03*
X200000Y282000D02*
D03*
X132000Y150000D02*
D03*
X159000D02*
D03*
X215000Y289000D02*
D03*
X195000Y304000D02*
D03*
X156000D02*
D03*
X123000Y273000D02*
D03*
X137000Y265000D02*
D03*
X197000Y252000D02*
D03*
X198000Y235000D02*
D03*
X221000D02*
D03*
X220841Y193841D02*
D03*
X223000Y163000D02*
D03*
X181209Y273209D02*
D03*
X226000Y172000D02*
D03*
Y209000D02*
D03*
Y246000D02*
D03*
X112000Y258000D02*
D03*
X114000Y221000D02*
D03*
X113000Y184000D02*
D03*
X163963Y288762D02*
D03*
X185000Y293000D02*
D03*
X165000Y292000D02*
D03*
X221000D02*
D03*
X234000Y254000D02*
D03*
X181000Y269600D02*
D03*
X119941Y164164D02*
D03*
X120000Y196000D02*
D03*
X121000Y266000D02*
D03*
Y236000D02*
D03*
X215122Y253997D02*
D03*
X112000Y213000D02*
D03*
Y176000D02*
D03*
Y139000D02*
D03*
X229000Y180000D02*
D03*
Y217000D02*
D03*
Y254000D02*
D03*
X228000Y144000D02*
D03*
X227000Y135000D02*
D03*
X113000Y147000D02*
D03*
D48*
X111100Y111335D02*
D03*
X111240Y359764D02*
D03*
X230832Y111126D02*
D03*
X230783Y359754D02*
D03*
M02*
