G04*
G04 #@! TF.GenerationSoftware,Altium Limited,Altium Designer,21.8.1 (53)*
G04*
G04 Layer_Color=16711935*
%FSLAX25Y25*%
%MOIN*%
G70*
G04*
G04 #@! TF.SameCoordinates,70880257-2F83-41F6-BC9D-4F7E7A3CF3A8*
G04*
G04*
G04 #@! TF.FilePolarity,Negative*
G04*
G01*
G75*
%ADD29C,0.07237*%
%ADD30R,0.07887X0.07887*%
%ADD31C,0.07887*%
%ADD32C,0.07355*%
%ADD33C,0.15800*%
%ADD34C,0.07099*%
G04:AMPARAMS|DCode=35|XSize=70.99mil|YSize=70.99mil|CornerRadius=19.75mil|HoleSize=0mil|Usage=FLASHONLY|Rotation=180.000|XOffset=0mil|YOffset=0mil|HoleType=Round|Shape=RoundedRectangle|*
%AMROUNDEDRECTD35*
21,1,0.07099,0.03150,0,0,180.0*
21,1,0.03150,0.07099,0,0,180.0*
1,1,0.03950,-0.01575,0.01575*
1,1,0.03950,0.01575,0.01575*
1,1,0.03950,0.01575,-0.01575*
1,1,0.03950,-0.01575,-0.01575*
%
%ADD35ROUNDEDRECTD35*%
%ADD36C,0.13398*%
D29*
X228000Y336000D02*
D03*
Y326000D02*
D03*
Y316000D02*
D03*
D30*
X110000Y317000D02*
D03*
D31*
Y336685D02*
D03*
D32*
X130000Y170000D02*
D03*
Y180000D02*
D03*
Y190000D02*
D03*
Y200000D02*
D03*
Y210000D02*
D03*
Y220000D02*
D03*
Y230000D02*
D03*
Y240000D02*
D03*
Y250000D02*
D03*
Y260000D02*
D03*
Y270000D02*
D03*
Y280000D02*
D03*
X210000D02*
D03*
Y270000D02*
D03*
Y260000D02*
D03*
Y250000D02*
D03*
Y240000D02*
D03*
Y230000D02*
D03*
Y220000D02*
D03*
Y210000D02*
D03*
Y200000D02*
D03*
Y190000D02*
D03*
Y180000D02*
D03*
Y170000D02*
D03*
Y160000D02*
D03*
Y150000D02*
D03*
Y140000D02*
D03*
Y130000D02*
D03*
D33*
X205000Y115000D02*
D03*
X135000D02*
D03*
X205000Y295000D02*
D03*
X135000D02*
D03*
D34*
X156000Y315000D02*
D03*
X176000D02*
D03*
X196000D02*
D03*
X186000D02*
D03*
X166000D02*
D03*
X146000D02*
D03*
X136000D02*
D03*
X186000Y362244D02*
D03*
X166000D02*
D03*
X146000D02*
D03*
X156000D02*
D03*
X176000D02*
D03*
X196000D02*
D03*
X206000D02*
D03*
D35*
Y315000D02*
D03*
X136000Y362244D02*
D03*
D36*
X111100Y111335D02*
D03*
X111240Y359764D02*
D03*
X230832Y111126D02*
D03*
X230783Y359754D02*
D03*
M02*
