M48
;Layer_Color=9474304
;FILE_FORMAT=2:5
INCH,LZ
;TYPE=PLATED
T1F00S00C0.01000
T2F00S00C0.01200
T3F00S00C0.04331
T4F00S00C0.04370
T5F00S00C0.04724
T6F00S00C0.10000
T7F00S00C0.12598
%
T01
X0113Y0147
X0227Y0135
X0226Y0172
Y0209
Y0246
X0112Y0258
X0114Y0221
X0113Y0184
T02
X0112Y0139
X0132Y015
X0159
X0228Y0144
X0223Y0163
X0229Y018
X0220841Y0193841
X0229Y0217
X0221Y0235
X0198
X0197Y0252
X0215122Y0253997
X0229Y0254
X0234
X0221Y0292
X0215Y0289
X02Y0282
X0185Y0293
X0195Y0304
X0165Y0292
X0163963Y0288762
X0181209Y0273209
X0181Y02696
X0137Y0265
X0121Y0266
X0123Y0273
X0112Y025
X0121Y0236
X0112Y0213
X012Y0196
X0112Y0176
X0119941Y0164164
X0156Y0304
X0136977Y0325514
X0219821Y0319442
X022Y0332
T03
X0136Y0315
X0146
X0156
Y0362244
X0146
X0136
X0166
X0176
X0186
X0196
X0206
Y0315
X0196
X0186
X0176
X0166
T04
X021Y013
Y014
Y015
Y016
Y017
Y018
Y019
Y02
Y021
Y022
Y023
Y024
Y025
Y026
Y027
Y028
X013
Y027
Y026
Y025
Y024
Y023
Y022
Y021
Y02
Y019
Y018
Y017
X0228Y0316
Y0326
Y0336
T05
X011Y0317
Y0336685
T06
X0135Y0115
X0205
Y0295
X0135
T07
X01111Y0111335
X0230832Y0111126
X011124Y0359764
X0230783Y0359754
M30
