G04*
G04 #@! TF.GenerationSoftware,Altium Limited,Altium Designer,21.8.1 (53)*
G04*
G04 Layer_Physical_Order=2*
G04 Layer_Color=16711680*
%FSLAX25Y25*%
%MOIN*%
G70*
G04*
G04 #@! TF.SameCoordinates,70880257-2F83-41F6-BC9D-4F7E7A3CF3A8*
G04*
G04*
G04 #@! TF.FilePolarity,Positive*
G04*
G01*
G75*
%ADD14C,0.01000*%
%ADD37C,0.01600*%
%ADD38C,0.01200*%
%ADD40C,0.06437*%
%ADD41R,0.07087X0.07087*%
%ADD42C,0.07087*%
%ADD43C,0.06555*%
%ADD44C,0.15000*%
%ADD45C,0.06299*%
G04:AMPARAMS|DCode=46|XSize=62.99mil|YSize=62.99mil|CornerRadius=15.75mil|HoleSize=0mil|Usage=FLASHONLY|Rotation=180.000|XOffset=0mil|YOffset=0mil|HoleType=Round|Shape=RoundedRectangle|*
%AMROUNDEDRECTD46*
21,1,0.06299,0.03150,0,0,180.0*
21,1,0.03150,0.06299,0,0,180.0*
1,1,0.03150,-0.01575,0.01575*
1,1,0.03150,0.01575,0.01575*
1,1,0.03150,0.01575,-0.01575*
1,1,0.03150,-0.01575,-0.01575*
%
%ADD46ROUNDEDRECTD46*%
%ADD47C,0.02400*%
%ADD48C,0.12598*%
G36*
X242000Y100000D02*
X100000D01*
Y371501D01*
X242000D01*
Y100000D01*
D02*
G37*
%LPC*%
G36*
X206546Y366394D02*
X206500D01*
Y362744D01*
X210150D01*
Y362790D01*
X209867Y363846D01*
X209320Y364792D01*
X208548Y365565D01*
X207602Y366111D01*
X206546Y366394D01*
D02*
G37*
G36*
X205500D02*
X205454D01*
X204398Y366111D01*
X203452Y365565D01*
X202679Y364792D01*
X202133Y363846D01*
X201850Y362790D01*
Y362744D01*
X205500D01*
Y366394D01*
D02*
G37*
G36*
X146546D02*
X146500D01*
Y362744D01*
X150150D01*
Y362790D01*
X149867Y363846D01*
X149320Y364792D01*
X148548Y365565D01*
X147602Y366111D01*
X146546Y366394D01*
D02*
G37*
G36*
X145500D02*
X145454D01*
X144398Y366111D01*
X143452Y365565D01*
X142680Y364792D01*
X142133Y363846D01*
X141850Y362790D01*
Y362744D01*
X145500D01*
Y366394D01*
D02*
G37*
G36*
X111959Y367063D02*
X111740D01*
Y360264D01*
X118539D01*
Y360483D01*
X118259Y361893D01*
X117709Y363222D01*
X116910Y364417D01*
X115893Y365434D01*
X114698Y366232D01*
X113369Y366783D01*
X111959Y367063D01*
D02*
G37*
G36*
X110740D02*
X110521D01*
X109111Y366783D01*
X107783Y366232D01*
X106587Y365434D01*
X105570Y364417D01*
X104772Y363222D01*
X104221Y361893D01*
X103941Y360483D01*
Y360264D01*
X110740D01*
Y367063D01*
D02*
G37*
G36*
X231502Y367053D02*
X231283D01*
Y360254D01*
X238082D01*
Y360473D01*
X237802Y361883D01*
X237252Y363211D01*
X236453Y364407D01*
X235436Y365424D01*
X234241Y366223D01*
X232912Y366773D01*
X231502Y367053D01*
D02*
G37*
G36*
X230283D02*
X230064D01*
X228654Y366773D01*
X227326Y366223D01*
X226130Y365424D01*
X225114Y364407D01*
X224315Y363211D01*
X223764Y361883D01*
X223484Y360473D01*
Y360254D01*
X230283D01*
Y367053D01*
D02*
G37*
G36*
X210150Y361744D02*
X206500D01*
Y358095D01*
X206546D01*
X207602Y358377D01*
X208548Y358924D01*
X209320Y359696D01*
X209867Y360642D01*
X210150Y361698D01*
Y361744D01*
D02*
G37*
G36*
X205500D02*
X201850D01*
Y361698D01*
X202133Y360642D01*
X202679Y359696D01*
X203452Y358924D01*
X204398Y358377D01*
X205454Y358095D01*
X205500D01*
Y361744D01*
D02*
G37*
G36*
X196546Y366394D02*
X195454D01*
X194398Y366111D01*
X193452Y365565D01*
X192680Y364792D01*
X192133Y363846D01*
X191850Y362790D01*
Y361698D01*
X192133Y360642D01*
X192680Y359696D01*
X193452Y358924D01*
X194398Y358377D01*
X195454Y358095D01*
X196546D01*
X197602Y358377D01*
X198548Y358924D01*
X199320Y359696D01*
X199867Y360642D01*
X200150Y361698D01*
Y362790D01*
X199867Y363846D01*
X199320Y364792D01*
X198548Y365565D01*
X197602Y366111D01*
X196546Y366394D01*
D02*
G37*
G36*
X186546D02*
X185454D01*
X184398Y366111D01*
X183452Y365565D01*
X182679Y364792D01*
X182133Y363846D01*
X181850Y362790D01*
Y361698D01*
X182133Y360642D01*
X182679Y359696D01*
X183452Y358924D01*
X184398Y358377D01*
X185454Y358095D01*
X186546D01*
X187602Y358377D01*
X188548Y358924D01*
X189321Y359696D01*
X189867Y360642D01*
X190150Y361698D01*
Y362790D01*
X189867Y363846D01*
X189321Y364792D01*
X188548Y365565D01*
X187602Y366111D01*
X186546Y366394D01*
D02*
G37*
G36*
X176546D02*
X175454D01*
X174398Y366111D01*
X173452Y365565D01*
X172679Y364792D01*
X172133Y363846D01*
X171850Y362790D01*
Y361698D01*
X172133Y360642D01*
X172679Y359696D01*
X173452Y358924D01*
X174398Y358377D01*
X175454Y358095D01*
X176546D01*
X177602Y358377D01*
X178548Y358924D01*
X179321Y359696D01*
X179867Y360642D01*
X180150Y361698D01*
Y362790D01*
X179867Y363846D01*
X179321Y364792D01*
X178548Y365565D01*
X177602Y366111D01*
X176546Y366394D01*
D02*
G37*
G36*
X166546D02*
X165454D01*
X164398Y366111D01*
X163452Y365565D01*
X162680Y364792D01*
X162133Y363846D01*
X161850Y362790D01*
Y361698D01*
X162133Y360642D01*
X162680Y359696D01*
X163452Y358924D01*
X164398Y358377D01*
X165454Y358095D01*
X166546D01*
X167602Y358377D01*
X168548Y358924D01*
X169320Y359696D01*
X169867Y360642D01*
X170150Y361698D01*
Y362790D01*
X169867Y363846D01*
X169320Y364792D01*
X168548Y365565D01*
X167602Y366111D01*
X166546Y366394D01*
D02*
G37*
G36*
X156546D02*
X155454D01*
X154398Y366111D01*
X153452Y365565D01*
X152680Y364792D01*
X152133Y363846D01*
X151850Y362790D01*
Y361698D01*
X152133Y360642D01*
X152680Y359696D01*
X153452Y358924D01*
X154398Y358377D01*
X155454Y358095D01*
X156546D01*
X157602Y358377D01*
X158548Y358924D01*
X159320Y359696D01*
X159867Y360642D01*
X160150Y361698D01*
Y362790D01*
X159867Y363846D01*
X159320Y364792D01*
X158548Y365565D01*
X157602Y366111D01*
X156546Y366394D01*
D02*
G37*
G36*
X150150Y361744D02*
X146500D01*
Y358095D01*
X146546D01*
X147602Y358377D01*
X148548Y358924D01*
X149320Y359696D01*
X149867Y360642D01*
X150150Y361698D01*
Y361744D01*
D02*
G37*
G36*
X145500D02*
X141850D01*
Y361698D01*
X142133Y360642D01*
X142680Y359696D01*
X143452Y358924D01*
X144398Y358377D01*
X145454Y358095D01*
X145500D01*
Y361744D01*
D02*
G37*
G36*
X137575Y366416D02*
X134425D01*
X133753Y366327D01*
X133127Y366068D01*
X132589Y365655D01*
X132176Y365117D01*
X131917Y364491D01*
X131828Y363819D01*
Y360669D01*
X131917Y359997D01*
X132176Y359371D01*
X132589Y358833D01*
X133127Y358420D01*
X133753Y358161D01*
X134425Y358072D01*
X137575D01*
X138247Y358161D01*
X138873Y358420D01*
X139411Y358833D01*
X139824Y359371D01*
X140083Y359997D01*
X140172Y360669D01*
Y363819D01*
X140083Y364491D01*
X139824Y365117D01*
X139411Y365655D01*
X138873Y366068D01*
X138247Y366327D01*
X137575Y366416D01*
D02*
G37*
G36*
X118539Y359264D02*
X111740D01*
Y352465D01*
X111959D01*
X113369Y352745D01*
X114698Y353295D01*
X115893Y354094D01*
X116910Y355111D01*
X117709Y356307D01*
X118259Y357635D01*
X118539Y359045D01*
Y359264D01*
D02*
G37*
G36*
X110740D02*
X103941D01*
Y359045D01*
X104221Y357635D01*
X104772Y356307D01*
X105570Y355111D01*
X106587Y354094D01*
X107783Y353295D01*
X109111Y352745D01*
X110521Y352465D01*
X110740D01*
Y359264D01*
D02*
G37*
G36*
X238082Y359254D02*
X231283D01*
Y352455D01*
X231502D01*
X232912Y352735D01*
X234241Y353286D01*
X235436Y354084D01*
X236453Y355101D01*
X237252Y356296D01*
X237802Y357625D01*
X238082Y359035D01*
Y359254D01*
D02*
G37*
G36*
X230283D02*
X223484D01*
Y359035D01*
X223764Y357625D01*
X224315Y356296D01*
X225114Y355101D01*
X226130Y354084D01*
X227326Y353286D01*
X228654Y352735D01*
X230064Y352455D01*
X230283D01*
Y359254D01*
D02*
G37*
G36*
X220500Y334174D02*
Y332500D01*
X222174D01*
X221865Y333246D01*
X221246Y333865D01*
X220500Y334174D01*
D02*
G37*
G36*
X219500D02*
X218754Y333865D01*
X218135Y333246D01*
X217826Y332500D01*
X219500D01*
Y334174D01*
D02*
G37*
G36*
X110598Y341228D02*
X109402D01*
X108246Y340919D01*
X107210Y340321D01*
X106365Y339475D01*
X105766Y338439D01*
X105457Y337283D01*
Y336087D01*
X105766Y334931D01*
X106365Y333895D01*
X107210Y333050D01*
X108246Y332451D01*
X109402Y332142D01*
X110598D01*
X111754Y332451D01*
X112790Y333050D01*
X113636Y333895D01*
X114234Y334931D01*
X114543Y336087D01*
Y337283D01*
X114234Y338439D01*
X113636Y339475D01*
X112790Y340321D01*
X111754Y340919D01*
X110598Y341228D01*
D02*
G37*
G36*
X228555Y340218D02*
X227445D01*
X226372Y339931D01*
X225410Y339376D01*
X224624Y338590D01*
X224069Y337628D01*
X223781Y336555D01*
Y335445D01*
X224069Y334372D01*
X224624Y333410D01*
X225410Y332624D01*
X226372Y332069D01*
X227445Y331782D01*
X228555D01*
X229628Y332069D01*
X230590Y332624D01*
X231376Y333410D01*
X231931Y334372D01*
X232219Y335445D01*
Y336555D01*
X231931Y337628D01*
X231376Y338590D01*
X230590Y339376D01*
X229628Y339931D01*
X228555Y340218D01*
D02*
G37*
G36*
X222174Y331500D02*
X220500D01*
Y329826D01*
X221246Y330135D01*
X221865Y330754D01*
X222174Y331500D01*
D02*
G37*
G36*
X219500D02*
X217826D01*
X218135Y330754D01*
X218754Y330135D01*
X219500Y329826D01*
Y331500D01*
D02*
G37*
G36*
X228555Y330219D02*
X228500D01*
Y326500D01*
X232219D01*
Y326555D01*
X231931Y327628D01*
X231376Y328590D01*
X230590Y329376D01*
X229628Y329931D01*
X228555Y330219D01*
D02*
G37*
G36*
X227500D02*
X227445D01*
X226372Y329931D01*
X225410Y329376D01*
X224624Y328590D01*
X224069Y327628D01*
X223781Y326555D01*
Y326500D01*
X227500D01*
Y330219D01*
D02*
G37*
G36*
X137477Y327688D02*
Y326014D01*
X139151D01*
X138842Y326760D01*
X138223Y327379D01*
X137477Y327688D01*
D02*
G37*
G36*
X136477D02*
X135731Y327379D01*
X135112Y326760D01*
X134803Y326014D01*
X136477D01*
Y327688D01*
D02*
G37*
G36*
X139151Y325014D02*
X137477D01*
Y323340D01*
X138223Y323649D01*
X138842Y324268D01*
X139151Y325014D01*
D02*
G37*
G36*
X136477D02*
X134803D01*
X135112Y324268D01*
X135731Y323649D01*
X136477Y323340D01*
Y325014D01*
D02*
G37*
G36*
X232219Y325500D02*
X228500D01*
Y321781D01*
X228555D01*
X229628Y322069D01*
X230590Y322624D01*
X231376Y323410D01*
X231931Y324372D01*
X232219Y325445D01*
Y325500D01*
D02*
G37*
G36*
X227500D02*
X223781D01*
Y325445D01*
X224069Y324372D01*
X224624Y323410D01*
X225410Y322624D01*
X226372Y322069D01*
X227445Y321781D01*
X227500D01*
Y325500D01*
D02*
G37*
G36*
X220321Y321616D02*
Y319942D01*
X221995D01*
X221686Y320688D01*
X221067Y321307D01*
X220321Y321616D01*
D02*
G37*
G36*
X219321D02*
X218575Y321307D01*
X217956Y320688D01*
X217647Y319942D01*
X219321D01*
Y321616D01*
D02*
G37*
G36*
X114543Y321543D02*
X110500D01*
Y317500D01*
X114543D01*
Y321543D01*
D02*
G37*
G36*
X109500D02*
X105457D01*
Y317500D01*
X109500D01*
Y321543D01*
D02*
G37*
G36*
X221995Y318942D02*
X220321D01*
Y317268D01*
X221067Y317577D01*
X221686Y318196D01*
X221995Y318942D01*
D02*
G37*
G36*
X219321D02*
X217647D01*
X217956Y318196D01*
X218575Y317577D01*
X219321Y317268D01*
Y318942D01*
D02*
G37*
G36*
X114543Y316500D02*
X110500D01*
Y312457D01*
X114543D01*
Y316500D01*
D02*
G37*
G36*
X109500D02*
X105457D01*
Y312457D01*
X109500D01*
Y316500D01*
D02*
G37*
G36*
X228555Y320218D02*
X227445D01*
X226372Y319931D01*
X225410Y319376D01*
X224624Y318590D01*
X224069Y317628D01*
X223781Y316555D01*
Y315445D01*
X224069Y314372D01*
X224624Y313410D01*
X225410Y312624D01*
X226372Y312069D01*
X227445Y311782D01*
X228555D01*
X229628Y312069D01*
X230590Y312624D01*
X231376Y313410D01*
X231931Y314372D01*
X232219Y315445D01*
Y316555D01*
X231931Y317628D01*
X231376Y318590D01*
X230590Y319376D01*
X229628Y319931D01*
X228555Y320218D01*
D02*
G37*
G36*
X196546Y319150D02*
X195454D01*
X194398Y318867D01*
X193452Y318320D01*
X192680Y317548D01*
X192133Y316602D01*
X191850Y315546D01*
Y314454D01*
X192133Y313398D01*
X192680Y312452D01*
X193452Y311680D01*
X194398Y311133D01*
X195454Y310850D01*
X196546D01*
X197602Y311133D01*
X198548Y311680D01*
X199320Y312452D01*
X199867Y313398D01*
X200150Y314454D01*
Y315546D01*
X199867Y316602D01*
X199320Y317548D01*
X198548Y318320D01*
X197602Y318867D01*
X196546Y319150D01*
D02*
G37*
G36*
X186546D02*
X185454D01*
X184398Y318867D01*
X183452Y318320D01*
X182679Y317548D01*
X182133Y316602D01*
X181850Y315546D01*
Y314454D01*
X182133Y313398D01*
X182679Y312452D01*
X183452Y311680D01*
X184398Y311133D01*
X185454Y310850D01*
X186546D01*
X187602Y311133D01*
X188548Y311680D01*
X189321Y312452D01*
X189867Y313398D01*
X190150Y314454D01*
Y315546D01*
X189867Y316602D01*
X189321Y317548D01*
X188548Y318320D01*
X187602Y318867D01*
X186546Y319150D01*
D02*
G37*
G36*
X176546D02*
X175454D01*
X174398Y318867D01*
X173452Y318320D01*
X172679Y317548D01*
X172133Y316602D01*
X171850Y315546D01*
Y314454D01*
X172133Y313398D01*
X172679Y312452D01*
X173452Y311680D01*
X174398Y311133D01*
X175454Y310850D01*
X176546D01*
X177602Y311133D01*
X178548Y311680D01*
X179321Y312452D01*
X179867Y313398D01*
X180150Y314454D01*
Y315546D01*
X179867Y316602D01*
X179321Y317548D01*
X178548Y318320D01*
X177602Y318867D01*
X176546Y319150D01*
D02*
G37*
G36*
X166546D02*
X165454D01*
X164398Y318867D01*
X163452Y318320D01*
X162680Y317548D01*
X162133Y316602D01*
X161850Y315546D01*
Y314454D01*
X162133Y313398D01*
X162680Y312452D01*
X163452Y311680D01*
X164398Y311133D01*
X165454Y310850D01*
X166546D01*
X167602Y311133D01*
X168548Y311680D01*
X169320Y312452D01*
X169867Y313398D01*
X170150Y314454D01*
Y315546D01*
X169867Y316602D01*
X169320Y317548D01*
X168548Y318320D01*
X167602Y318867D01*
X166546Y319150D01*
D02*
G37*
G36*
X156546D02*
X155454D01*
X154398Y318867D01*
X153452Y318320D01*
X152680Y317548D01*
X152133Y316602D01*
X151850Y315546D01*
Y314454D01*
X152133Y313398D01*
X152680Y312452D01*
X153452Y311680D01*
X154398Y311133D01*
X155454Y310850D01*
X156546D01*
X157602Y311133D01*
X158548Y311680D01*
X159320Y312452D01*
X159867Y313398D01*
X160150Y314454D01*
Y315546D01*
X159867Y316602D01*
X159320Y317548D01*
X158548Y318320D01*
X157602Y318867D01*
X156546Y319150D01*
D02*
G37*
G36*
X146546D02*
X145454D01*
X144398Y318867D01*
X143452Y318320D01*
X142680Y317548D01*
X142133Y316602D01*
X141850Y315546D01*
Y314454D01*
X142133Y313398D01*
X142680Y312452D01*
X143452Y311680D01*
X144398Y311133D01*
X145454Y310850D01*
X146546D01*
X147602Y311133D01*
X148548Y311680D01*
X149320Y312452D01*
X149867Y313398D01*
X150150Y314454D01*
Y315546D01*
X149867Y316602D01*
X149320Y317548D01*
X148548Y318320D01*
X147602Y318867D01*
X146546Y319150D01*
D02*
G37*
G36*
X207575Y319172D02*
X204425D01*
X203753Y319083D01*
X203127Y318824D01*
X202589Y318411D01*
X202176Y317873D01*
X201917Y317247D01*
X201828Y316575D01*
Y313425D01*
X201828Y313424D01*
X198240Y309835D01*
X191000D01*
X190414Y309719D01*
X190298Y309696D01*
X189702Y309298D01*
X187240Y306835D01*
X163000D01*
X162298Y306696D01*
X161702Y306298D01*
X151702Y296298D01*
X151304Y295702D01*
X151281Y295586D01*
X151165Y295000D01*
Y265760D01*
X137240Y251835D01*
X133880D01*
X133423Y252626D01*
X132626Y253423D01*
X131651Y253986D01*
X130563Y254278D01*
X129437D01*
X128349Y253986D01*
X127374Y253423D01*
X126577Y252626D01*
X126014Y251651D01*
X125722Y250563D01*
Y249437D01*
X126014Y248349D01*
X126577Y247374D01*
X127374Y246577D01*
X128349Y246014D01*
X129437Y245722D01*
X130563D01*
X131651Y246014D01*
X132626Y246577D01*
X133423Y247374D01*
X133880Y248165D01*
X138000D01*
X138586Y248281D01*
X138702Y248304D01*
X139298Y248702D01*
X154298Y263702D01*
X154564Y264100D01*
X154696Y264298D01*
X154835Y265000D01*
Y294240D01*
X163760Y303165D01*
X188000D01*
X188586Y303281D01*
X188702Y303304D01*
X189298Y303702D01*
X191760Y306165D01*
X194477D01*
X193754Y305865D01*
X193135Y305246D01*
X192800Y304438D01*
Y304395D01*
X191240Y302835D01*
X166000D01*
X165414Y302719D01*
X165298Y302696D01*
X164702Y302298D01*
X155702Y293298D01*
X155304Y292702D01*
X155281Y292586D01*
X155165Y292000D01*
Y262760D01*
X134917Y242513D01*
X133489D01*
X133423Y242627D01*
X132626Y243423D01*
X131651Y243986D01*
X130563Y244278D01*
X129437D01*
X128349Y243986D01*
X127374Y243423D01*
X126577Y242627D01*
X126014Y241651D01*
X125722Y240563D01*
Y239437D01*
X126014Y238349D01*
X126577Y237373D01*
X127374Y236577D01*
X128349Y236014D01*
X129437Y235722D01*
X130563D01*
X131651Y236014D01*
X132626Y236577D01*
X133423Y237373D01*
X133986Y238349D01*
X134118Y238842D01*
X135678D01*
X136263Y238959D01*
X136380Y238982D01*
X136975Y239380D01*
X158298Y260702D01*
X158564Y261100D01*
X158696Y261298D01*
X158835Y262000D01*
Y291240D01*
X166760Y299165D01*
X192000D01*
X192586Y299281D01*
X192702Y299304D01*
X193298Y299702D01*
X195396Y301800D01*
X195438D01*
X196246Y302135D01*
X196865Y302754D01*
X197200Y303562D01*
Y304438D01*
X196865Y305246D01*
X196246Y305865D01*
X195523Y306165D01*
X199000D01*
X199586Y306281D01*
X199702Y306304D01*
X200298Y306702D01*
X204424Y310828D01*
X204425Y310828D01*
X207575D01*
X208247Y310917D01*
X208873Y311176D01*
X209411Y311589D01*
X209824Y312127D01*
X210083Y312753D01*
X210172Y313425D01*
Y316575D01*
X210083Y317247D01*
X209824Y317873D01*
X209411Y318411D01*
X208873Y318824D01*
X208247Y319083D01*
X207575Y319172D01*
D02*
G37*
G36*
X156500Y306174D02*
Y304500D01*
X158174D01*
X157865Y305246D01*
X157246Y305865D01*
X156500Y306174D01*
D02*
G37*
G36*
X155500D02*
X154754Y305865D01*
X154135Y305246D01*
X153826Y304500D01*
X155500D01*
Y306174D01*
D02*
G37*
G36*
X158174Y303500D02*
X156500D01*
Y301826D01*
X157246Y302135D01*
X157865Y302754D01*
X158174Y303500D01*
D02*
G37*
G36*
X155500D02*
X153826D01*
X154135Y302754D01*
X154754Y302135D01*
X155500Y301826D01*
Y303500D01*
D02*
G37*
G36*
X185500Y295174D02*
Y293500D01*
X187174D01*
X186865Y294246D01*
X186246Y294865D01*
X185500Y295174D01*
D02*
G37*
G36*
X184500D02*
X183754Y294865D01*
X183135Y294246D01*
X182826Y293500D01*
X184500D01*
Y295174D01*
D02*
G37*
G36*
X221500Y294174D02*
Y292500D01*
X223174D01*
X222865Y293246D01*
X222246Y293865D01*
X221500Y294174D01*
D02*
G37*
G36*
X220500D02*
X219754Y293865D01*
X219135Y293246D01*
X218826Y292500D01*
X220500D01*
Y294174D01*
D02*
G37*
G36*
X165500D02*
Y292500D01*
X167174D01*
X166865Y293246D01*
X166246Y293865D01*
X165500Y294174D01*
D02*
G37*
G36*
X187174Y292500D02*
X185500D01*
Y290826D01*
X186246Y291135D01*
X186865Y291754D01*
X187174Y292500D01*
D02*
G37*
G36*
X184500D02*
X182826D01*
X183135Y291754D01*
X183754Y291135D01*
X184500Y290826D01*
Y292500D01*
D02*
G37*
G36*
X223174Y291500D02*
X221500D01*
Y289826D01*
X222246Y290135D01*
X222865Y290754D01*
X223174Y291500D01*
D02*
G37*
G36*
X220500D02*
X218826D01*
X219135Y290754D01*
X219754Y290135D01*
X220500Y289826D01*
Y291500D01*
D02*
G37*
G36*
X135837Y303500D02*
X134163D01*
X132521Y303173D01*
X130974Y302533D01*
X129582Y301602D01*
X128398Y300418D01*
X127467Y299026D01*
X126827Y297479D01*
X126500Y295837D01*
Y294163D01*
X126827Y292521D01*
X127467Y290974D01*
X128398Y289582D01*
X129582Y288398D01*
X130974Y287467D01*
X132500Y286835D01*
X132493D01*
X132103Y286913D01*
X123937D01*
X123235Y286773D01*
X122640Y286375D01*
X121702Y285438D01*
X121304Y284843D01*
X121281Y284726D01*
X121165Y284140D01*
Y274276D01*
X121135Y274246D01*
X120800Y273438D01*
Y272562D01*
X121135Y271754D01*
X121359Y271529D01*
X112000D01*
X111415Y271413D01*
X110919Y271081D01*
X107919Y268081D01*
X107587Y267585D01*
X107471Y267000D01*
Y253000D01*
X107587Y252415D01*
X107919Y251919D01*
X109800Y250037D01*
Y249562D01*
X110135Y248754D01*
X110471Y248418D01*
Y224575D01*
X108662Y222766D01*
X108330Y222270D01*
X108214Y221685D01*
Y213000D01*
Y176000D01*
Y141257D01*
X108330Y140671D01*
X108662Y140175D01*
X109800Y139037D01*
Y138562D01*
X110135Y137754D01*
X110754Y137135D01*
X111562Y136800D01*
X112438D01*
X113246Y137135D01*
X113865Y137754D01*
X114200Y138562D01*
Y139438D01*
X113865Y140246D01*
X113246Y140865D01*
X112438Y141200D01*
X111963D01*
X111273Y141890D01*
Y145616D01*
X111754Y145135D01*
X112500Y144826D01*
Y147000D01*
Y149174D01*
X111754Y148865D01*
X111273Y148384D01*
Y173920D01*
X111562Y173800D01*
X112438D01*
X113246Y174135D01*
X113865Y174754D01*
X114200Y175562D01*
Y176438D01*
X113865Y177246D01*
X113246Y177865D01*
X112438Y178200D01*
X111562D01*
X111273Y178080D01*
Y182616D01*
X111754Y182135D01*
X112500Y181826D01*
Y184000D01*
Y186174D01*
X111754Y185865D01*
X111273Y185384D01*
Y210920D01*
X111562Y210800D01*
X112438D01*
X113246Y211135D01*
X113865Y211754D01*
X114200Y212562D01*
Y213438D01*
X113865Y214246D01*
X113246Y214865D01*
X112438Y215200D01*
X111562D01*
X111273Y215080D01*
Y221052D01*
X111900Y221679D01*
X111826Y221500D01*
X113500D01*
Y223174D01*
X113211Y223055D01*
X113413Y223356D01*
X113529Y223942D01*
Y248418D01*
X113865Y248754D01*
X114200Y249562D01*
Y250438D01*
X113865Y251246D01*
X113246Y251865D01*
X112438Y252200D01*
X111963D01*
X110529Y253633D01*
Y256359D01*
X110754Y256135D01*
X111500Y255826D01*
Y258000D01*
Y260174D01*
X110754Y259865D01*
X110529Y259641D01*
Y266367D01*
X112634Y268471D01*
X125981D01*
X126014Y268349D01*
X126577Y267373D01*
X127374Y266577D01*
X128349Y266014D01*
X129437Y265722D01*
X130563D01*
X131651Y266014D01*
X132626Y266577D01*
X133423Y267373D01*
X133986Y268349D01*
X134278Y269437D01*
Y270563D01*
X133986Y271651D01*
X133423Y272626D01*
X132626Y273423D01*
X131651Y273986D01*
X130563Y274278D01*
X129437D01*
X128349Y273986D01*
X127374Y273423D01*
X126577Y272626D01*
X126014Y271651D01*
X125981Y271529D01*
X124641D01*
X124865Y271754D01*
X125200Y272562D01*
Y273438D01*
X124865Y274246D01*
X124835Y274276D01*
Y283242D01*
X127193D01*
X126577Y282627D01*
X126014Y281651D01*
X125722Y280563D01*
Y279437D01*
X126014Y278349D01*
X126577Y277374D01*
X127374Y276577D01*
X128349Y276014D01*
X129437Y275722D01*
X130563D01*
X131651Y276014D01*
X132626Y276577D01*
X133423Y277374D01*
X133986Y278349D01*
X134278Y279437D01*
Y280563D01*
X133986Y281651D01*
X133423Y282627D01*
X132885Y283165D01*
X133240D01*
X135165Y281240D01*
Y266276D01*
X135135Y266246D01*
X134800Y265438D01*
Y264562D01*
X135135Y263754D01*
X135754Y263135D01*
X136562Y262800D01*
X137438D01*
X138246Y263135D01*
X138865Y263754D01*
X139200Y264562D01*
Y265438D01*
X138865Y266246D01*
X138835Y266276D01*
Y282000D01*
X138719Y282586D01*
X138696Y282702D01*
X138298Y283298D01*
X135298Y286298D01*
X134995Y286500D01*
X135837D01*
X137479Y286827D01*
X139026Y287467D01*
X140418Y288398D01*
X141602Y289582D01*
X142533Y290974D01*
X143173Y292521D01*
X143500Y294163D01*
Y295837D01*
X143173Y297479D01*
X142533Y299026D01*
X141602Y300418D01*
X140418Y301602D01*
X139026Y302533D01*
X137479Y303173D01*
X135837Y303500D01*
D02*
G37*
G36*
X205837D02*
X204163D01*
X202521Y303173D01*
X200974Y302533D01*
X199582Y301602D01*
X198398Y300418D01*
X197467Y299026D01*
X196827Y297479D01*
X196500Y295837D01*
Y294163D01*
X196827Y292521D01*
X197467Y290974D01*
X198398Y289582D01*
X199582Y288398D01*
X200974Y287467D01*
X202521Y286827D01*
X202583Y286814D01*
X202375Y286773D01*
X201780Y286375D01*
X199605Y284200D01*
X199562D01*
X198754Y283865D01*
X198135Y283246D01*
X197800Y282438D01*
Y281562D01*
X198135Y280754D01*
X198754Y280135D01*
X199562Y279800D01*
X200438D01*
X201246Y280135D01*
X201865Y280754D01*
X202200Y281562D01*
Y281605D01*
X203838Y283242D01*
X207193D01*
X206577Y282627D01*
X206014Y281651D01*
X205722Y280563D01*
Y280500D01*
X210000D01*
X214278D01*
Y280563D01*
X213986Y281651D01*
X213423Y282627D01*
X212627Y283423D01*
X212205Y283666D01*
X212375Y283780D01*
X215395Y286800D01*
X215438D01*
X216246Y287135D01*
X216865Y287754D01*
X217200Y288562D01*
Y289438D01*
X216865Y290246D01*
X216246Y290865D01*
X215438Y291200D01*
X214562D01*
X213754Y290865D01*
X213135Y290246D01*
X212800Y289438D01*
Y289395D01*
X210317Y286913D01*
X207687D01*
X209026Y287467D01*
X210418Y288398D01*
X211602Y289582D01*
X212533Y290974D01*
X213173Y292521D01*
X213500Y294163D01*
Y295837D01*
X213173Y297479D01*
X212533Y299026D01*
X211602Y300418D01*
X210418Y301602D01*
X209026Y302533D01*
X207479Y303173D01*
X205837Y303500D01*
D02*
G37*
G36*
X136546Y319150D02*
X135454D01*
X134398Y318867D01*
X133452Y318320D01*
X132679Y317548D01*
X132133Y316602D01*
X131850Y315546D01*
Y314454D01*
X132133Y313398D01*
X132679Y312452D01*
X133452Y311680D01*
X134398Y311133D01*
X135454Y310850D01*
X135823D01*
X135883Y310547D01*
X135906Y310431D01*
X136304Y309836D01*
X145165Y300975D01*
Y267760D01*
X139240Y261835D01*
X133880D01*
X133423Y262627D01*
X132626Y263423D01*
X131651Y263986D01*
X130563Y264278D01*
X129437D01*
X128349Y263986D01*
X127374Y263423D01*
X126577Y262627D01*
X126014Y261651D01*
X125722Y260563D01*
Y259437D01*
X126014Y258349D01*
X126577Y257373D01*
X127374Y256577D01*
X128349Y256014D01*
X129437Y255722D01*
X130563D01*
X131651Y256014D01*
X132626Y256577D01*
X133423Y257373D01*
X133880Y258165D01*
X140000D01*
X140586Y258281D01*
X140702Y258304D01*
X141298Y258702D01*
X148298Y265702D01*
X148564Y266100D01*
X148696Y266298D01*
X148835Y267000D01*
Y301735D01*
X148696Y302437D01*
X148298Y303033D01*
X139437Y311893D01*
Y312127D01*
X139359Y312519D01*
X139867Y313398D01*
X140150Y314454D01*
Y315546D01*
X139867Y316602D01*
X139321Y317548D01*
X138548Y318320D01*
X137602Y318867D01*
X136546Y319150D01*
D02*
G37*
G36*
X112500Y260174D02*
Y258500D01*
X114174D01*
X113865Y259246D01*
X113246Y259865D01*
X112500Y260174D01*
D02*
G37*
G36*
X114174Y257500D02*
X112500D01*
Y255826D01*
X113246Y256135D01*
X113865Y256754D01*
X114174Y257500D01*
D02*
G37*
G36*
X215559Y256197D02*
X214684D01*
X213875Y255862D01*
X213256Y255243D01*
X212922Y254435D01*
Y253559D01*
X213227Y252823D01*
X212627Y253423D01*
X211651Y253986D01*
X210563Y254278D01*
X209437D01*
X208349Y253986D01*
X207373Y253423D01*
X206577Y252626D01*
X206014Y251651D01*
X205722Y250563D01*
Y249437D01*
X206014Y248349D01*
X206577Y247374D01*
X207373Y246577D01*
X208349Y246014D01*
X209437Y245722D01*
X210563D01*
X211651Y246014D01*
X212627Y246577D01*
X213423Y247374D01*
X213490Y247490D01*
Y242510D01*
X213423Y242627D01*
X212627Y243423D01*
X211651Y243986D01*
X210563Y244278D01*
X209437D01*
X208349Y243986D01*
X207373Y243423D01*
X206577Y242627D01*
X206014Y241651D01*
X205722Y240563D01*
Y239437D01*
X206014Y238349D01*
X206577Y237373D01*
X207373Y236577D01*
X208349Y236014D01*
X209437Y235722D01*
X210563D01*
X211651Y236014D01*
X212627Y236577D01*
X213423Y237373D01*
X213490Y237490D01*
Y232510D01*
X213423Y232627D01*
X212627Y233423D01*
X211651Y233986D01*
X210563Y234278D01*
X209437D01*
X208349Y233986D01*
X207373Y233423D01*
X206577Y232627D01*
X206014Y231651D01*
X205722Y230563D01*
Y229437D01*
X206014Y228349D01*
X206577Y227374D01*
X207373Y226577D01*
X208349Y226014D01*
X209437Y225722D01*
X210563D01*
X211651Y226014D01*
X212627Y226577D01*
X213423Y227374D01*
X213490Y227490D01*
Y222510D01*
X213423Y222626D01*
X212627Y223423D01*
X211651Y223986D01*
X210563Y224278D01*
X209437D01*
X208349Y223986D01*
X207373Y223423D01*
X206577Y222626D01*
X206014Y221651D01*
X205722Y220563D01*
Y219437D01*
X206014Y218349D01*
X206577Y217373D01*
X207373Y216577D01*
X208349Y216014D01*
X209437Y215722D01*
X210563D01*
X211651Y216014D01*
X212627Y216577D01*
X213423Y217373D01*
X213490Y217490D01*
Y212510D01*
X213423Y212627D01*
X212627Y213423D01*
X211651Y213986D01*
X210563Y214278D01*
X209437D01*
X208349Y213986D01*
X207373Y213423D01*
X206577Y212627D01*
X206014Y211651D01*
X205722Y210563D01*
Y209437D01*
X206014Y208349D01*
X206577Y207373D01*
X207373Y206577D01*
X208349Y206014D01*
X209437Y205722D01*
X210563D01*
X211651Y206014D01*
X212627Y206577D01*
X213423Y207373D01*
X213490Y207490D01*
Y205797D01*
X211669Y203976D01*
X211651Y203986D01*
X210563Y204278D01*
X209437D01*
X208349Y203986D01*
X207373Y203423D01*
X206577Y202626D01*
X206014Y201651D01*
X205722Y200563D01*
Y199437D01*
X206014Y198349D01*
X206577Y197373D01*
X207373Y196577D01*
X208349Y196014D01*
X209437Y195722D01*
X210563D01*
X211651Y196014D01*
X212627Y196577D01*
X213423Y197373D01*
X213986Y198349D01*
X214278Y199437D01*
Y200563D01*
X213986Y201651D01*
X213976Y201669D01*
X216275Y203968D01*
X216629Y204497D01*
X216753Y205121D01*
Y252517D01*
X216986Y252751D01*
X217321Y253559D01*
Y254435D01*
X216986Y255243D01*
X216368Y255862D01*
X215559Y256197D01*
D02*
G37*
G36*
X164500Y294174D02*
X163754Y293865D01*
X163135Y293246D01*
X163123Y293218D01*
X162919Y293081D01*
X162587Y292585D01*
X162471Y292000D01*
X162587Y291415D01*
X162919Y290919D01*
X163111Y290790D01*
X162717Y290627D01*
X162098Y290008D01*
X161763Y289200D01*
Y288324D01*
X162098Y287516D01*
X162702Y286912D01*
Y286369D01*
X162818Y285784D01*
X163150Y285287D01*
X178800Y269637D01*
Y269162D01*
X179135Y268354D01*
X179754Y267735D01*
X180562Y267400D01*
X181438D01*
X182246Y267735D01*
X182865Y268354D01*
X182913Y268471D01*
X202610D01*
X207384Y263696D01*
X207599Y263553D01*
X207373Y263423D01*
X206577Y262627D01*
X206014Y261651D01*
X205722Y260563D01*
Y259437D01*
X206014Y258349D01*
X206577Y257373D01*
X207373Y256577D01*
X208349Y256014D01*
X209437Y255722D01*
X210563D01*
X211651Y256014D01*
X212627Y256577D01*
X213423Y257373D01*
X213986Y258349D01*
X214278Y259437D01*
Y260563D01*
X213986Y261651D01*
X213423Y262627D01*
X212801Y263248D01*
X217589D01*
X226800Y254037D01*
Y253562D01*
X227135Y252754D01*
X227754Y252135D01*
X227771Y252128D01*
Y247341D01*
X227246Y247865D01*
X226500Y248174D01*
Y246000D01*
Y243826D01*
X227246Y244135D01*
X227771Y244659D01*
Y218872D01*
X227754Y218865D01*
X227135Y218246D01*
X226800Y217438D01*
Y216562D01*
X227135Y215754D01*
X227754Y215135D01*
X227771Y215128D01*
Y210341D01*
X227246Y210865D01*
X226500Y211174D01*
Y209000D01*
Y206826D01*
X227246Y207135D01*
X227771Y207659D01*
Y181872D01*
X227754Y181865D01*
X227135Y181246D01*
X226800Y180438D01*
Y179562D01*
X227135Y178754D01*
X227754Y178135D01*
X227771Y178128D01*
Y173341D01*
X227246Y173865D01*
X226500Y174174D01*
Y172000D01*
X226000D01*
Y171500D01*
X223826D01*
X224135Y170754D01*
X224754Y170135D01*
X225562Y169800D01*
X226438D01*
X226471Y169814D01*
X226471Y169812D01*
Y145582D01*
X226135Y145246D01*
X225800Y144438D01*
Y143562D01*
X226135Y142754D01*
X226754Y142135D01*
X227562Y141800D01*
X228438D01*
X229246Y142135D01*
X229865Y142754D01*
X230200Y143562D01*
Y144438D01*
X229865Y145246D01*
X229529Y145582D01*
Y169179D01*
X230381Y170031D01*
X230713Y170527D01*
X230829Y171112D01*
Y178718D01*
X230865Y178754D01*
X231200Y179562D01*
Y180438D01*
X230865Y181246D01*
X230829Y181282D01*
Y215718D01*
X230865Y215754D01*
X231200Y216562D01*
Y217438D01*
X230865Y218246D01*
X230829Y218282D01*
Y252718D01*
X230865Y252754D01*
X231200Y253562D01*
Y254438D01*
X231059Y254778D01*
X231800Y254037D01*
Y253562D01*
X232135Y252754D01*
X232754Y252135D01*
X233562Y251800D01*
X234438D01*
X235246Y252135D01*
X235865Y252754D01*
X236200Y253562D01*
Y254438D01*
X235865Y255246D01*
X235246Y255865D01*
X234438Y256200D01*
X233963D01*
X219325Y270838D01*
X218829Y271169D01*
X218244Y271286D01*
X217634D01*
X213060Y275859D01*
X212564Y276190D01*
X212112Y276280D01*
X212627Y276577D01*
X213423Y277374D01*
X213986Y278349D01*
X214278Y279437D01*
Y279500D01*
X210000D01*
X205722D01*
Y279437D01*
X206014Y278349D01*
X206577Y277374D01*
X207373Y276577D01*
X207841Y276307D01*
X197568D01*
X196982Y276190D01*
X196486Y275859D01*
X195157Y274529D01*
X183000D01*
X182455Y275074D01*
X181647Y275409D01*
X180772D01*
X179963Y275074D01*
X179344Y274455D01*
X179041Y273722D01*
X165760Y287002D01*
Y287448D01*
X165828Y287516D01*
X166163Y288324D01*
Y289200D01*
X165845Y289969D01*
X166246Y290135D01*
X166865Y290754D01*
X167174Y291500D01*
X165000D01*
Y292000D01*
X164500D01*
Y294174D01*
D02*
G37*
G36*
X225500Y248174D02*
X224754Y247865D01*
X224135Y247246D01*
X223826Y246500D01*
X225500D01*
Y248174D01*
D02*
G37*
G36*
Y245500D02*
X223826D01*
X224135Y244754D01*
X224754Y244135D01*
X225500Y243826D01*
Y245500D01*
D02*
G37*
G36*
X197438Y254200D02*
X196562D01*
X195754Y253865D01*
X195135Y253246D01*
X194800Y252438D01*
Y251562D01*
X195135Y250754D01*
X195165Y250724D01*
Y249000D01*
X195281Y248414D01*
X195304Y248298D01*
X195702Y247702D01*
X196165Y247240D01*
Y236276D01*
X196135Y236246D01*
X195800Y235438D01*
Y234562D01*
X196135Y233754D01*
X196754Y233135D01*
X197562Y232800D01*
X198438D01*
X199246Y233135D01*
X199865Y233754D01*
X200200Y234562D01*
Y235438D01*
X199865Y236246D01*
X199835Y236276D01*
Y248000D01*
X199696Y248702D01*
X199564Y248900D01*
X199298Y249298D01*
X198835Y249760D01*
Y250724D01*
X198865Y250754D01*
X199200Y251562D01*
Y252438D01*
X198865Y253246D01*
X198246Y253865D01*
X197438Y254200D01*
D02*
G37*
G36*
X130563Y234278D02*
X129437D01*
X128349Y233986D01*
X127374Y233423D01*
X126577Y232627D01*
X126014Y231651D01*
X125722Y230563D01*
Y229437D01*
X126014Y228349D01*
X126577Y227374D01*
X127374Y226577D01*
X128349Y226014D01*
X129437Y225722D01*
X130563D01*
X131651Y226014D01*
X132626Y226577D01*
X133423Y227374D01*
X133986Y228349D01*
X134278Y229437D01*
Y230563D01*
X133986Y231651D01*
X133423Y232627D01*
X132626Y233423D01*
X131651Y233986D01*
X130563Y234278D01*
D02*
G37*
G36*
X114500Y223174D02*
Y221500D01*
X116174D01*
X115865Y222246D01*
X115246Y222865D01*
X114500Y223174D01*
D02*
G37*
G36*
X116174Y220500D02*
X114500D01*
Y218826D01*
X115246Y219135D01*
X115865Y219754D01*
X116174Y220500D01*
D02*
G37*
G36*
X113500D02*
X111826D01*
X112135Y219754D01*
X112754Y219135D01*
X113500Y218826D01*
Y220500D01*
D02*
G37*
G36*
X130563Y224278D02*
X129437D01*
X128349Y223986D01*
X127374Y223423D01*
X126577Y222626D01*
X126014Y221651D01*
X125722Y220563D01*
Y219437D01*
X126014Y218349D01*
X126577Y217373D01*
X127374Y216577D01*
X128349Y216014D01*
X129437Y215722D01*
X130563D01*
X131651Y216014D01*
X132626Y216577D01*
X133423Y217373D01*
X133986Y218349D01*
X134278Y219437D01*
Y220563D01*
X133986Y221651D01*
X133423Y222626D01*
X132626Y223423D01*
X131651Y223986D01*
X130563Y224278D01*
D02*
G37*
G36*
X225500Y211174D02*
X224754Y210865D01*
X224135Y210246D01*
X223826Y209500D01*
X225500D01*
Y211174D01*
D02*
G37*
G36*
Y208500D02*
X223826D01*
X224135Y207754D01*
X224754Y207135D01*
X225500Y206826D01*
Y208500D01*
D02*
G37*
G36*
X130563Y214278D02*
X129437D01*
X128349Y213986D01*
X127374Y213423D01*
X126577Y212627D01*
X126014Y211651D01*
X125722Y210563D01*
Y209437D01*
X126014Y208349D01*
X126577Y207373D01*
X127374Y206577D01*
X128349Y206014D01*
X129437Y205722D01*
X130563D01*
X131651Y206014D01*
X132626Y206577D01*
X133423Y207373D01*
X133986Y208349D01*
X134278Y209437D01*
Y210563D01*
X133986Y211651D01*
X133423Y212627D01*
X132626Y213423D01*
X131651Y213986D01*
X130563Y214278D01*
D02*
G37*
G36*
Y204278D02*
X129437D01*
X128349Y203986D01*
X127374Y203423D01*
X126577Y202626D01*
X126014Y201651D01*
X125722Y200563D01*
Y199437D01*
X126014Y198349D01*
X126577Y197373D01*
X127374Y196577D01*
X128349Y196014D01*
X129437Y195722D01*
X130563D01*
X131651Y196014D01*
X132626Y196577D01*
X133423Y197373D01*
X133986Y198349D01*
X134278Y199437D01*
Y200563D01*
X133986Y201651D01*
X133423Y202626D01*
X132626Y203423D01*
X131651Y203986D01*
X130563Y204278D01*
D02*
G37*
G36*
X210563Y194278D02*
X209437D01*
X208349Y193986D01*
X207373Y193423D01*
X206577Y192627D01*
X206014Y191651D01*
X205722Y190563D01*
Y189437D01*
X206014Y188349D01*
X206577Y187373D01*
X207373Y186577D01*
X208349Y186014D01*
X209437Y185722D01*
X210563D01*
X211651Y186014D01*
X212627Y186577D01*
X213423Y187373D01*
X213986Y188349D01*
X214278Y189437D01*
Y190563D01*
X213986Y191651D01*
X213423Y192627D01*
X212627Y193423D01*
X211651Y193986D01*
X210563Y194278D01*
D02*
G37*
G36*
X130563D02*
X129437D01*
X128349Y193986D01*
X127374Y193423D01*
X126577Y192627D01*
X126014Y191651D01*
X125722Y190563D01*
Y189437D01*
X126014Y188349D01*
X126577Y187373D01*
X127374Y186577D01*
X128349Y186014D01*
X129437Y185722D01*
X130563D01*
X131651Y186014D01*
X132626Y186577D01*
X133423Y187373D01*
X133986Y188349D01*
X134278Y189437D01*
Y190563D01*
X133986Y191651D01*
X133423Y192627D01*
X132626Y193423D01*
X131651Y193986D01*
X130563Y194278D01*
D02*
G37*
G36*
X113500Y186174D02*
Y184500D01*
X115174D01*
X114865Y185246D01*
X114246Y185865D01*
X113500Y186174D01*
D02*
G37*
G36*
X115174Y183500D02*
X113500D01*
Y181826D01*
X114246Y182135D01*
X114865Y182754D01*
X115174Y183500D01*
D02*
G37*
G36*
X210563Y184278D02*
X209437D01*
X208349Y183986D01*
X207373Y183423D01*
X206577Y182626D01*
X206014Y181651D01*
X205722Y180563D01*
Y179437D01*
X206014Y178349D01*
X206577Y177374D01*
X207373Y176577D01*
X208349Y176014D01*
X209437Y175722D01*
X210563D01*
X211651Y176014D01*
X212627Y176577D01*
X213423Y177374D01*
X213986Y178349D01*
X214278Y179437D01*
Y180563D01*
X213986Y181651D01*
X213423Y182626D01*
X212627Y183423D01*
X211651Y183986D01*
X210563Y184278D01*
D02*
G37*
G36*
X130563D02*
X129437D01*
X128349Y183986D01*
X127374Y183423D01*
X126577Y182626D01*
X126014Y181651D01*
X125722Y180563D01*
Y179437D01*
X126014Y178349D01*
X126577Y177374D01*
X127374Y176577D01*
X128349Y176014D01*
X129437Y175722D01*
X130563D01*
X131651Y176014D01*
X132626Y176577D01*
X133423Y177374D01*
X133986Y178349D01*
X134278Y179437D01*
Y180563D01*
X133986Y181651D01*
X133423Y182626D01*
X132626Y183423D01*
X131651Y183986D01*
X130563Y184278D01*
D02*
G37*
G36*
X225500Y174174D02*
X224754Y173865D01*
X224135Y173246D01*
X223826Y172500D01*
X225500D01*
Y174174D01*
D02*
G37*
G36*
X210563Y174278D02*
X209437D01*
X208349Y173986D01*
X207373Y173423D01*
X206577Y172626D01*
X206014Y171651D01*
X205722Y170563D01*
Y169437D01*
X206014Y168349D01*
X206577Y167374D01*
X207373Y166577D01*
X208349Y166014D01*
X209437Y165722D01*
X210563D01*
X211651Y166014D01*
X212627Y166577D01*
X213423Y167374D01*
X213986Y168349D01*
X214278Y169437D01*
Y170563D01*
X213986Y171651D01*
X213423Y172626D01*
X212627Y173423D01*
X211651Y173986D01*
X210563Y174278D01*
D02*
G37*
G36*
X130563D02*
X129437D01*
X128349Y173986D01*
X127374Y173423D01*
X126577Y172626D01*
X126014Y171651D01*
X125722Y170563D01*
Y169437D01*
X126014Y168349D01*
X126577Y167374D01*
X127374Y166577D01*
X128349Y166014D01*
X129437Y165722D01*
X130563D01*
X131651Y166014D01*
X132626Y166577D01*
X133423Y167374D01*
X133986Y168349D01*
X134278Y169437D01*
Y170563D01*
X133986Y171651D01*
X133423Y172626D01*
X132626Y173423D01*
X131651Y173986D01*
X130563Y174278D01*
D02*
G37*
G36*
X121438Y268200D02*
X120562D01*
X119754Y267865D01*
X119135Y267246D01*
X118800Y266438D01*
Y265562D01*
X119135Y264754D01*
X119369Y264520D01*
Y237480D01*
X119135Y237246D01*
X118800Y236438D01*
Y235562D01*
X119135Y234754D01*
X119369Y234520D01*
Y203676D01*
X118846Y203153D01*
X118493Y202624D01*
X118369Y202000D01*
Y197480D01*
X118135Y197246D01*
X117800Y196438D01*
Y195562D01*
X118135Y194754D01*
X118369Y194520D01*
Y165703D01*
X118076Y165410D01*
X117741Y164602D01*
Y163727D01*
X118076Y162918D01*
X118695Y162299D01*
X119503Y161964D01*
X120378D01*
X121187Y162299D01*
X121320Y162432D01*
X121624Y162493D01*
X122153Y162847D01*
X122507Y163376D01*
X122631Y164000D01*
X122507Y164624D01*
X122153Y165154D01*
X121631Y165676D01*
Y194520D01*
X121865Y194754D01*
X122200Y195562D01*
Y196438D01*
X121865Y197246D01*
X121631Y197480D01*
Y201324D01*
X122153Y201847D01*
X122507Y202376D01*
X122631Y203000D01*
Y234520D01*
X122865Y234754D01*
X123200Y235562D01*
Y236438D01*
X122865Y237246D01*
X122631Y237480D01*
Y264520D01*
X122865Y264754D01*
X123200Y265562D01*
Y266438D01*
X122865Y267246D01*
X122246Y267865D01*
X121438Y268200D01*
D02*
G37*
G36*
X210563Y164278D02*
X210500D01*
Y160500D01*
X214278D01*
Y160563D01*
X213986Y161651D01*
X213423Y162627D01*
X212627Y163423D01*
X211651Y163986D01*
X210563Y164278D01*
D02*
G37*
G36*
X209500D02*
X209437D01*
X208349Y163986D01*
X207373Y163423D01*
X206577Y162627D01*
X206014Y161651D01*
X205722Y160563D01*
Y160500D01*
X209500D01*
Y164278D01*
D02*
G37*
G36*
X214278Y159500D02*
X210500D01*
Y155722D01*
X210563D01*
X211651Y156014D01*
X212627Y156577D01*
X213423Y157373D01*
X213986Y158349D01*
X214278Y159437D01*
Y159500D01*
D02*
G37*
G36*
X209500D02*
X205722D01*
Y159437D01*
X206014Y158349D01*
X206577Y157373D01*
X207373Y156577D01*
X208349Y156014D01*
X209437Y155722D01*
X209500D01*
Y159500D01*
D02*
G37*
G36*
X159438Y152200D02*
X158562D01*
X157754Y151865D01*
X157724Y151835D01*
X133276D01*
X133246Y151865D01*
X132438Y152200D01*
X131562D01*
X130754Y151865D01*
X130135Y151246D01*
X129800Y150438D01*
Y149562D01*
X130135Y148754D01*
X130754Y148135D01*
X131562Y147800D01*
X132438D01*
X133246Y148135D01*
X133276Y148165D01*
X157724D01*
X157754Y148135D01*
X158562Y147800D01*
X159438D01*
X160246Y148135D01*
X160865Y148754D01*
X161200Y149562D01*
Y150438D01*
X160865Y151246D01*
X160246Y151865D01*
X159438Y152200D01*
D02*
G37*
G36*
X113500Y149174D02*
Y147500D01*
X115174D01*
X114865Y148246D01*
X114246Y148865D01*
X113500Y149174D01*
D02*
G37*
G36*
X210563Y154278D02*
X209437D01*
X208349Y153986D01*
X207373Y153423D01*
X206577Y152627D01*
X206014Y151651D01*
X205722Y150563D01*
Y149437D01*
X206014Y148349D01*
X206577Y147373D01*
X207373Y146577D01*
X208349Y146014D01*
X209437Y145722D01*
X210563D01*
X211651Y146014D01*
X212627Y146577D01*
X213423Y147373D01*
X213986Y148349D01*
X214278Y149437D01*
Y150563D01*
X213986Y151651D01*
X213423Y152627D01*
X212627Y153423D01*
X211651Y153986D01*
X210563Y154278D01*
D02*
G37*
G36*
X115174Y146500D02*
X113500D01*
Y144826D01*
X114246Y145135D01*
X114865Y145754D01*
X115174Y146500D01*
D02*
G37*
G36*
X221438Y237200D02*
X220562D01*
X219754Y236865D01*
X219135Y236246D01*
X218800Y235438D01*
Y234562D01*
X219085Y233874D01*
Y195196D01*
X218976Y195087D01*
X218641Y194279D01*
Y193403D01*
X218976Y192595D01*
X219006Y192565D01*
Y165375D01*
X219123Y164789D01*
X219146Y164673D01*
X219544Y164077D01*
X220800Y162821D01*
Y162562D01*
X221135Y161754D01*
X221165Y161724D01*
Y153760D01*
X211446Y144041D01*
X210563Y144278D01*
X209437D01*
X208349Y143986D01*
X207373Y143423D01*
X206577Y142627D01*
X206014Y141651D01*
X205722Y140563D01*
Y139437D01*
X206014Y138349D01*
X206577Y137373D01*
X207373Y136577D01*
X208349Y136014D01*
X209437Y135722D01*
X210563D01*
X211651Y136014D01*
X212627Y136577D01*
X213423Y137373D01*
X213986Y138349D01*
X214278Y139437D01*
Y140563D01*
X214041Y141446D01*
X224298Y151702D01*
X224696Y152298D01*
X224835Y153000D01*
Y161724D01*
X224865Y161754D01*
X225200Y162562D01*
Y163438D01*
X224865Y164246D01*
X224246Y164865D01*
X223735Y165077D01*
X222676Y166135D01*
Y192565D01*
X222706Y192595D01*
X223041Y193403D01*
Y194279D01*
X222756Y194968D01*
Y233645D01*
X222865Y233754D01*
X223200Y234562D01*
Y235438D01*
X222865Y236246D01*
X222246Y236865D01*
X221438Y237200D01*
D02*
G37*
G36*
X227500Y137174D02*
Y135500D01*
X229174D01*
X228865Y136246D01*
X228246Y136865D01*
X227500Y137174D01*
D02*
G37*
G36*
X226500D02*
X225754Y136865D01*
X225135Y136246D01*
X224826Y135500D01*
X226500D01*
Y137174D01*
D02*
G37*
G36*
X229174Y134500D02*
X227500D01*
Y132826D01*
X228246Y133135D01*
X228865Y133754D01*
X229174Y134500D01*
D02*
G37*
G36*
X226500D02*
X224826D01*
X225135Y133754D01*
X225754Y133135D01*
X226500Y132826D01*
Y134500D01*
D02*
G37*
G36*
X210563Y134278D02*
X209437D01*
X208349Y133986D01*
X207373Y133423D01*
X206577Y132626D01*
X206014Y131651D01*
X205722Y130563D01*
Y129437D01*
X206014Y128349D01*
X206577Y127374D01*
X207373Y126577D01*
X208349Y126014D01*
X209437Y125722D01*
X210563D01*
X211651Y126014D01*
X212627Y126577D01*
X213423Y127374D01*
X213986Y128349D01*
X214278Y129437D01*
Y130563D01*
X213986Y131651D01*
X213423Y132626D01*
X212627Y133423D01*
X211651Y133986D01*
X210563Y134278D01*
D02*
G37*
G36*
X111819Y118634D02*
X111600D01*
Y111835D01*
X118399D01*
Y112054D01*
X118119Y113464D01*
X117568Y114792D01*
X116770Y115988D01*
X115753Y117004D01*
X114557Y117803D01*
X113229Y118353D01*
X111819Y118634D01*
D02*
G37*
G36*
X110600D02*
X110381D01*
X108971Y118353D01*
X107642Y117803D01*
X106447Y117004D01*
X105430Y115988D01*
X104631Y114792D01*
X104081Y113464D01*
X103801Y112054D01*
Y111835D01*
X110600D01*
Y118634D01*
D02*
G37*
G36*
X231551Y118425D02*
X231332D01*
Y111626D01*
X238131D01*
Y111845D01*
X237850Y113255D01*
X237300Y114584D01*
X236501Y115779D01*
X235485Y116796D01*
X234289Y117595D01*
X232961Y118145D01*
X231551Y118425D01*
D02*
G37*
G36*
X230332D02*
X230113D01*
X228702Y118145D01*
X227374Y117595D01*
X226179Y116796D01*
X225162Y115779D01*
X224363Y114584D01*
X223813Y113255D01*
X223532Y111845D01*
Y111626D01*
X230332D01*
Y118425D01*
D02*
G37*
G36*
X205837Y123500D02*
X204163D01*
X202521Y123173D01*
X200974Y122533D01*
X199582Y121602D01*
X198398Y120418D01*
X197467Y119026D01*
X196827Y117479D01*
X196500Y115837D01*
Y114163D01*
X196827Y112521D01*
X197467Y110974D01*
X198398Y109582D01*
X199582Y108398D01*
X200974Y107467D01*
X202521Y106827D01*
X204163Y106500D01*
X205837D01*
X207479Y106827D01*
X209026Y107467D01*
X210418Y108398D01*
X211602Y109582D01*
X212533Y110974D01*
X213173Y112521D01*
X213500Y114163D01*
Y115837D01*
X213173Y117479D01*
X212533Y119026D01*
X211602Y120418D01*
X210418Y121602D01*
X209026Y122533D01*
X207479Y123173D01*
X205837Y123500D01*
D02*
G37*
G36*
X135837D02*
X134163D01*
X132521Y123173D01*
X130974Y122533D01*
X129582Y121602D01*
X128398Y120418D01*
X127467Y119026D01*
X126827Y117479D01*
X126500Y115837D01*
Y114163D01*
X126827Y112521D01*
X127467Y110974D01*
X128398Y109582D01*
X129582Y108398D01*
X130974Y107467D01*
X132521Y106827D01*
X134163Y106500D01*
X135837D01*
X137479Y106827D01*
X139026Y107467D01*
X140418Y108398D01*
X141602Y109582D01*
X142533Y110974D01*
X143173Y112521D01*
X143500Y114163D01*
Y115837D01*
X143173Y117479D01*
X142533Y119026D01*
X141602Y120418D01*
X140418Y121602D01*
X139026Y122533D01*
X137479Y123173D01*
X135837Y123500D01*
D02*
G37*
G36*
X118399Y110835D02*
X111600D01*
Y104035D01*
X111819D01*
X113229Y104316D01*
X114557Y104866D01*
X115753Y105665D01*
X116770Y106682D01*
X117568Y107877D01*
X118119Y109205D01*
X118399Y110616D01*
Y110835D01*
D02*
G37*
G36*
X110600D02*
X103801D01*
Y110616D01*
X104081Y109205D01*
X104631Y107877D01*
X105430Y106682D01*
X106447Y105665D01*
X107642Y104866D01*
X108971Y104316D01*
X110381Y104035D01*
X110600D01*
Y110835D01*
D02*
G37*
G36*
X238131Y110626D02*
X231332D01*
Y103827D01*
X231551D01*
X232961Y104107D01*
X234289Y104658D01*
X235485Y105456D01*
X236501Y106473D01*
X237300Y107669D01*
X237850Y108997D01*
X238131Y110407D01*
Y110626D01*
D02*
G37*
G36*
X230332D02*
X223532D01*
Y110407D01*
X223813Y108997D01*
X224363Y107669D01*
X225162Y106473D01*
X226179Y105456D01*
X227374Y104658D01*
X228702Y104107D01*
X230113Y103827D01*
X230332D01*
Y110626D01*
D02*
G37*
%LPD*%
G36*
X213490Y252517D02*
Y252510D01*
X213480Y252527D01*
X213490Y252517D01*
D02*
G37*
G36*
X206577Y272626D02*
X206014Y271651D01*
X205722Y270563D01*
Y269684D01*
X204325Y271081D01*
X203829Y271413D01*
X203243Y271529D01*
X196086D01*
X196375Y271587D01*
X196872Y271919D01*
X198201Y273248D01*
X207199D01*
X206577Y272626D01*
D02*
G37*
G36*
X215919Y268675D02*
X216415Y268343D01*
X217000Y268227D01*
X217610D01*
X229778Y256059D01*
X229438Y256200D01*
X228963D01*
X219304Y265859D01*
X218808Y266191D01*
X218222Y266307D01*
X212159D01*
X212627Y266577D01*
X213423Y267373D01*
X213986Y268349D01*
X214278Y269437D01*
Y270316D01*
X215919Y268675D01*
D02*
G37*
D14*
X109000Y267000D02*
X112000Y270000D01*
X109000Y253000D02*
X112000Y250000D01*
X109000Y253000D02*
Y267000D01*
X112000Y270000D02*
X130000D01*
X163963Y288762D02*
X164231Y288494D01*
Y286369D02*
Y288494D01*
X181418Y273000D02*
X195790D01*
X181209Y273209D02*
X181418Y273000D01*
X164231Y286369D02*
X181000Y269600D01*
X228000Y169812D02*
X229300Y171112D01*
Y253700D01*
X229000Y254000D02*
X229300Y253700D01*
X228000Y144000D02*
Y169812D01*
X109743Y213000D02*
Y221685D01*
X112000Y223942D01*
Y250000D01*
X109743Y176000D02*
Y213000D01*
X181000Y270000D02*
X203243D01*
X185000Y293000D02*
X185268Y293268D01*
X164000Y292000D02*
X165000D01*
X217000Y269757D02*
X218244D01*
X234000Y254000D01*
X211979Y274778D02*
X217000Y269757D01*
X195790Y273000D02*
X197568Y274778D01*
X211979D01*
X181000Y269600D02*
Y270000D01*
X218222Y264778D02*
X229000Y254000D01*
X208466Y264778D02*
X218222D01*
X203243Y270000D02*
X208466Y264778D01*
X109743Y213000D02*
X112000D01*
X109743Y141257D02*
Y176000D01*
X112000D01*
X109743Y141257D02*
X112000Y139000D01*
D37*
X200000Y282000D02*
X203078Y285078D01*
X211078D01*
X132000Y150000D02*
X159000D01*
X211078Y285078D02*
X215000Y289000D01*
X192000Y301000D02*
X195000Y304000D01*
X166000Y301000D02*
X192000D01*
X157000Y292000D02*
X166000Y301000D01*
X157000Y262000D02*
Y292000D01*
X135678Y240678D02*
X157000Y262000D01*
X130678Y240678D02*
X135678D01*
X130000Y240000D02*
X130678Y240678D01*
X191000Y308000D02*
X199000D01*
X206000Y315000D01*
X188000Y305000D02*
X191000Y308000D01*
X163000Y305000D02*
X188000D01*
X153000Y295000D02*
X163000Y305000D01*
X153000Y265000D02*
Y295000D01*
X138000Y250000D02*
X153000Y265000D01*
X130000Y250000D02*
X138000D01*
X137602Y311133D02*
Y312127D01*
X136000Y313728D02*
Y315000D01*
Y313728D02*
X137602Y312127D01*
Y311133D02*
X147000Y301735D01*
Y267000D02*
Y301735D01*
X140000Y260000D02*
X147000Y267000D01*
X130000Y260000D02*
X140000D01*
X123000Y273000D02*
Y284140D01*
X123937Y285078D02*
X132103D01*
X123000Y284140D02*
X123937Y285078D01*
X132181Y285000D02*
X134000D01*
X132103Y285078D02*
X132181Y285000D01*
X134000D02*
X137000Y282000D01*
Y265000D02*
Y282000D01*
X220921Y193921D02*
Y234921D01*
X220841Y193841D02*
X220921Y193921D01*
Y234921D02*
X221000Y235000D01*
X197000Y249000D02*
Y252000D01*
Y249000D02*
X198000Y248000D01*
Y235000D02*
Y248000D01*
X220841Y165375D02*
X223000Y163216D01*
Y163000D02*
Y163216D01*
X220841Y165375D02*
Y193841D01*
X210000Y140000D02*
X223000Y153000D01*
Y163000D01*
D38*
X120000Y165000D02*
X121000Y164000D01*
X119941Y164164D02*
X120105Y164000D01*
X121000D01*
X120000Y165000D02*
Y196000D01*
Y202000D01*
X121000Y203000D01*
Y236000D01*
Y266000D01*
X215122Y205121D02*
Y253997D01*
X210000Y200000D02*
X215122Y205121D01*
D40*
X228000Y336000D02*
D03*
Y326000D02*
D03*
Y316000D02*
D03*
D41*
X110000Y317000D02*
D03*
D42*
Y336685D02*
D03*
D43*
X130000Y170000D02*
D03*
Y180000D02*
D03*
Y190000D02*
D03*
Y200000D02*
D03*
Y210000D02*
D03*
Y220000D02*
D03*
Y230000D02*
D03*
Y240000D02*
D03*
Y250000D02*
D03*
Y260000D02*
D03*
Y270000D02*
D03*
Y280000D02*
D03*
X210000D02*
D03*
Y270000D02*
D03*
Y260000D02*
D03*
Y250000D02*
D03*
Y240000D02*
D03*
Y230000D02*
D03*
Y220000D02*
D03*
Y210000D02*
D03*
Y200000D02*
D03*
Y190000D02*
D03*
Y180000D02*
D03*
Y170000D02*
D03*
Y160000D02*
D03*
Y150000D02*
D03*
Y140000D02*
D03*
Y130000D02*
D03*
D44*
X205000Y115000D02*
D03*
X135000D02*
D03*
X205000Y295000D02*
D03*
X135000D02*
D03*
D45*
X156000Y315000D02*
D03*
X176000D02*
D03*
X196000D02*
D03*
X186000D02*
D03*
X166000D02*
D03*
X146000D02*
D03*
X136000D02*
D03*
X186000Y362244D02*
D03*
X166000D02*
D03*
X146000D02*
D03*
X156000D02*
D03*
X176000D02*
D03*
X196000D02*
D03*
X206000D02*
D03*
D46*
Y315000D02*
D03*
X136000Y362244D02*
D03*
D47*
X136977Y325514D02*
D03*
X220000Y332000D02*
D03*
X219821Y319442D02*
D03*
X112000Y250000D02*
D03*
X200000Y282000D02*
D03*
X132000Y150000D02*
D03*
X159000D02*
D03*
X215000Y289000D02*
D03*
X195000Y304000D02*
D03*
X156000D02*
D03*
X123000Y273000D02*
D03*
X137000Y265000D02*
D03*
X197000Y252000D02*
D03*
X198000Y235000D02*
D03*
X221000D02*
D03*
X220841Y193841D02*
D03*
X223000Y163000D02*
D03*
X181209Y273209D02*
D03*
X226000Y172000D02*
D03*
Y209000D02*
D03*
Y246000D02*
D03*
X112000Y258000D02*
D03*
X114000Y221000D02*
D03*
X113000Y184000D02*
D03*
X163963Y288762D02*
D03*
X185000Y293000D02*
D03*
X165000Y292000D02*
D03*
X221000D02*
D03*
X234000Y254000D02*
D03*
X181000Y269600D02*
D03*
X119941Y164164D02*
D03*
X120000Y196000D02*
D03*
X121000Y266000D02*
D03*
Y236000D02*
D03*
X215122Y253997D02*
D03*
X112000Y213000D02*
D03*
Y176000D02*
D03*
Y139000D02*
D03*
X229000Y180000D02*
D03*
Y217000D02*
D03*
Y254000D02*
D03*
X228000Y144000D02*
D03*
X227000Y135000D02*
D03*
X113000Y147000D02*
D03*
D48*
X111100Y111335D02*
D03*
X111240Y359764D02*
D03*
X230832Y111126D02*
D03*
X230783Y359754D02*
D03*
M02*
