M48
;Layer_Color=9474304
;FILE_FORMAT=2:5
INCH,LZ
;TYPE=PLATED
T1F00S00C0.01000
T2F00S00C0.01200
T3F00S00C0.04331
T4F00S00C0.04370
T5F00S00C0.04724
T6F00S00C0.12598
%
T01
X0113Y0147
X0227Y0135
X0226Y0172
Y0209
Y0246
X0112Y0258
X0114Y0221
X0113Y0184
T02
X0112Y0139
X0127Y0151
X0214Y0154
X0228Y0144
X0187Y0117
X0214Y0165
X0212Y0173
X0223Y0163
X0229Y018
X0220841Y0193841
X0229Y0217
X0221Y0235
X0215282Y0253903
X0229Y0254
X0234
X0221Y0292
X0201719Y0291821
X0197328Y0291592
X0185127Y0292234
X0165Y0292
X0163963Y0288762
X0165043Y0296331
X0181209Y0273209
X0181Y02696
X0197Y0278
X0202
X0156Y0304
X013Y027
X0121Y0266
X0112Y025
X0121Y0236
X0112Y0213
X012Y0196
X0112Y0176
X0119941Y0164164
X0136977Y0325514
X0219821Y0319442
X022Y0332
T03
X0136Y0315
X0146
X0156
Y0362244
X0146
X0136
X0166
X0176
X0186
X0196
X0206
Y0315
X0196
X0186
X0176
X0166
T04
X0139Y0114
Y0124
Y0134
Y0144
Y0154
X0199
Y0144
Y0134
Y0124
Y0114
Y0164
Y0174
Y0184
Y0194
Y0204
Y0214
Y0224
Y0234
Y0244
X0189
X0179
X0169
X0159
X0149
X0139
Y0234
Y0224
Y0214
Y0204
Y0194
Y0184
Y0174
Y0164
X0228Y0316
Y0326
Y0336
T05
X011Y0317
Y0336685
T06
X01111Y0111335
X0230832Y0111126
X011124Y0359764
X0230783Y0359754
M30
