G04*
G04 #@! TF.GenerationSoftware,Altium Limited,Altium Designer,21.8.1 (53)*
G04*
G04 Layer_Physical_Order=2*
G04 Layer_Color=16711680*
%FSLAX25Y25*%
%MOIN*%
G70*
G04*
G04 #@! TF.SameCoordinates,1476896B-5F1A-493A-A4EA-86BB9D18E634*
G04*
G04*
G04 #@! TF.FilePolarity,Positive*
G04*
G01*
G75*
%ADD14C,0.01000*%
%ADD35C,0.01600*%
%ADD36C,0.02000*%
%ADD37C,0.01200*%
%ADD39C,0.06555*%
%ADD40C,0.06437*%
%ADD41R,0.07087X0.07087*%
%ADD42C,0.07087*%
%ADD43C,0.06299*%
G04:AMPARAMS|DCode=44|XSize=62.99mil|YSize=62.99mil|CornerRadius=15.75mil|HoleSize=0mil|Usage=FLASHONLY|Rotation=180.000|XOffset=0mil|YOffset=0mil|HoleType=Round|Shape=RoundedRectangle|*
%AMROUNDEDRECTD44*
21,1,0.06299,0.03150,0,0,180.0*
21,1,0.03150,0.06299,0,0,180.0*
1,1,0.03150,-0.01575,0.01575*
1,1,0.03150,0.01575,0.01575*
1,1,0.03150,0.01575,-0.01575*
1,1,0.03150,-0.01575,-0.01575*
%
%ADD44ROUNDEDRECTD44*%
%ADD45C,0.02400*%
%ADD46C,0.12598*%
G36*
X242000Y100000D02*
X100000D01*
Y371501D01*
X242000D01*
Y100000D01*
D02*
G37*
%LPC*%
G36*
X206546Y366394D02*
X206500D01*
Y362744D01*
X210150D01*
Y362790D01*
X209867Y363846D01*
X209320Y364792D01*
X208548Y365565D01*
X207602Y366111D01*
X206546Y366394D01*
D02*
G37*
G36*
X205500D02*
X205454D01*
X204398Y366111D01*
X203452Y365565D01*
X202679Y364792D01*
X202133Y363846D01*
X201850Y362790D01*
Y362744D01*
X205500D01*
Y366394D01*
D02*
G37*
G36*
X146546D02*
X146500D01*
Y362744D01*
X150150D01*
Y362790D01*
X149867Y363846D01*
X149320Y364792D01*
X148548Y365565D01*
X147602Y366111D01*
X146546Y366394D01*
D02*
G37*
G36*
X145500D02*
X145454D01*
X144398Y366111D01*
X143452Y365565D01*
X142680Y364792D01*
X142133Y363846D01*
X141850Y362790D01*
Y362744D01*
X145500D01*
Y366394D01*
D02*
G37*
G36*
X111959Y367063D02*
X111740D01*
Y360264D01*
X118539D01*
Y360483D01*
X118259Y361893D01*
X117709Y363222D01*
X116910Y364417D01*
X115893Y365434D01*
X114698Y366232D01*
X113369Y366783D01*
X111959Y367063D01*
D02*
G37*
G36*
X110740D02*
X110521D01*
X109111Y366783D01*
X107783Y366232D01*
X106587Y365434D01*
X105570Y364417D01*
X104772Y363222D01*
X104221Y361893D01*
X103941Y360483D01*
Y360264D01*
X110740D01*
Y367063D01*
D02*
G37*
G36*
X231502Y367053D02*
X231283D01*
Y360254D01*
X238082D01*
Y360473D01*
X237802Y361883D01*
X237252Y363211D01*
X236453Y364407D01*
X235436Y365424D01*
X234241Y366223D01*
X232912Y366773D01*
X231502Y367053D01*
D02*
G37*
G36*
X230283D02*
X230064D01*
X228654Y366773D01*
X227326Y366223D01*
X226130Y365424D01*
X225114Y364407D01*
X224315Y363211D01*
X223764Y361883D01*
X223484Y360473D01*
Y360254D01*
X230283D01*
Y367053D01*
D02*
G37*
G36*
X210150Y361744D02*
X206500D01*
Y358095D01*
X206546D01*
X207602Y358377D01*
X208548Y358924D01*
X209320Y359696D01*
X209867Y360642D01*
X210150Y361698D01*
Y361744D01*
D02*
G37*
G36*
X205500D02*
X201850D01*
Y361698D01*
X202133Y360642D01*
X202679Y359696D01*
X203452Y358924D01*
X204398Y358377D01*
X205454Y358095D01*
X205500D01*
Y361744D01*
D02*
G37*
G36*
X196546Y366394D02*
X195454D01*
X194398Y366111D01*
X193452Y365565D01*
X192680Y364792D01*
X192133Y363846D01*
X191850Y362790D01*
Y361698D01*
X192133Y360642D01*
X192680Y359696D01*
X193452Y358924D01*
X194398Y358377D01*
X195454Y358095D01*
X196546D01*
X197602Y358377D01*
X198548Y358924D01*
X199320Y359696D01*
X199867Y360642D01*
X200150Y361698D01*
Y362790D01*
X199867Y363846D01*
X199320Y364792D01*
X198548Y365565D01*
X197602Y366111D01*
X196546Y366394D01*
D02*
G37*
G36*
X186546D02*
X185454D01*
X184398Y366111D01*
X183452Y365565D01*
X182679Y364792D01*
X182133Y363846D01*
X181850Y362790D01*
Y361698D01*
X182133Y360642D01*
X182679Y359696D01*
X183452Y358924D01*
X184398Y358377D01*
X185454Y358095D01*
X186546D01*
X187602Y358377D01*
X188548Y358924D01*
X189321Y359696D01*
X189867Y360642D01*
X190150Y361698D01*
Y362790D01*
X189867Y363846D01*
X189321Y364792D01*
X188548Y365565D01*
X187602Y366111D01*
X186546Y366394D01*
D02*
G37*
G36*
X176546D02*
X175454D01*
X174398Y366111D01*
X173452Y365565D01*
X172679Y364792D01*
X172133Y363846D01*
X171850Y362790D01*
Y361698D01*
X172133Y360642D01*
X172679Y359696D01*
X173452Y358924D01*
X174398Y358377D01*
X175454Y358095D01*
X176546D01*
X177602Y358377D01*
X178548Y358924D01*
X179321Y359696D01*
X179867Y360642D01*
X180150Y361698D01*
Y362790D01*
X179867Y363846D01*
X179321Y364792D01*
X178548Y365565D01*
X177602Y366111D01*
X176546Y366394D01*
D02*
G37*
G36*
X166546D02*
X165454D01*
X164398Y366111D01*
X163452Y365565D01*
X162680Y364792D01*
X162133Y363846D01*
X161850Y362790D01*
Y361698D01*
X162133Y360642D01*
X162680Y359696D01*
X163452Y358924D01*
X164398Y358377D01*
X165454Y358095D01*
X166546D01*
X167602Y358377D01*
X168548Y358924D01*
X169320Y359696D01*
X169867Y360642D01*
X170150Y361698D01*
Y362790D01*
X169867Y363846D01*
X169320Y364792D01*
X168548Y365565D01*
X167602Y366111D01*
X166546Y366394D01*
D02*
G37*
G36*
X156546D02*
X155454D01*
X154398Y366111D01*
X153452Y365565D01*
X152680Y364792D01*
X152133Y363846D01*
X151850Y362790D01*
Y361698D01*
X152133Y360642D01*
X152680Y359696D01*
X153452Y358924D01*
X154398Y358377D01*
X155454Y358095D01*
X156546D01*
X157602Y358377D01*
X158548Y358924D01*
X159320Y359696D01*
X159867Y360642D01*
X160150Y361698D01*
Y362790D01*
X159867Y363846D01*
X159320Y364792D01*
X158548Y365565D01*
X157602Y366111D01*
X156546Y366394D01*
D02*
G37*
G36*
X150150Y361744D02*
X146500D01*
Y358095D01*
X146546D01*
X147602Y358377D01*
X148548Y358924D01*
X149320Y359696D01*
X149867Y360642D01*
X150150Y361698D01*
Y361744D01*
D02*
G37*
G36*
X145500D02*
X141850D01*
Y361698D01*
X142133Y360642D01*
X142680Y359696D01*
X143452Y358924D01*
X144398Y358377D01*
X145454Y358095D01*
X145500D01*
Y361744D01*
D02*
G37*
G36*
X137575Y366416D02*
X134425D01*
X133753Y366327D01*
X133127Y366068D01*
X132589Y365655D01*
X132176Y365117D01*
X131917Y364491D01*
X131828Y363819D01*
Y360669D01*
X131917Y359997D01*
X132176Y359371D01*
X132589Y358833D01*
X133127Y358420D01*
X133753Y358161D01*
X134425Y358072D01*
X137575D01*
X138247Y358161D01*
X138873Y358420D01*
X139411Y358833D01*
X139824Y359371D01*
X140083Y359997D01*
X140172Y360669D01*
Y363819D01*
X140083Y364491D01*
X139824Y365117D01*
X139411Y365655D01*
X138873Y366068D01*
X138247Y366327D01*
X137575Y366416D01*
D02*
G37*
G36*
X118539Y359264D02*
X111740D01*
Y352465D01*
X111959D01*
X113369Y352745D01*
X114698Y353295D01*
X115893Y354094D01*
X116910Y355111D01*
X117709Y356307D01*
X118259Y357635D01*
X118539Y359045D01*
Y359264D01*
D02*
G37*
G36*
X110740D02*
X103941D01*
Y359045D01*
X104221Y357635D01*
X104772Y356307D01*
X105570Y355111D01*
X106587Y354094D01*
X107783Y353295D01*
X109111Y352745D01*
X110521Y352465D01*
X110740D01*
Y359264D01*
D02*
G37*
G36*
X238082Y359254D02*
X231283D01*
Y352455D01*
X231502D01*
X232912Y352735D01*
X234241Y353286D01*
X235436Y354084D01*
X236453Y355101D01*
X237252Y356296D01*
X237802Y357625D01*
X238082Y359035D01*
Y359254D01*
D02*
G37*
G36*
X230283D02*
X223484D01*
Y359035D01*
X223764Y357625D01*
X224315Y356296D01*
X225114Y355101D01*
X226130Y354084D01*
X227326Y353286D01*
X228654Y352735D01*
X230064Y352455D01*
X230283D01*
Y359254D01*
D02*
G37*
G36*
X220500Y334174D02*
Y332500D01*
X222174D01*
X221865Y333246D01*
X221246Y333865D01*
X220500Y334174D01*
D02*
G37*
G36*
X219500D02*
X218754Y333865D01*
X218135Y333246D01*
X217826Y332500D01*
X219500D01*
Y334174D01*
D02*
G37*
G36*
X110598Y341228D02*
X109402D01*
X108246Y340919D01*
X107210Y340321D01*
X106365Y339475D01*
X105766Y338439D01*
X105457Y337283D01*
Y336087D01*
X105766Y334931D01*
X106365Y333895D01*
X107210Y333050D01*
X108246Y332451D01*
X109402Y332142D01*
X110598D01*
X111754Y332451D01*
X112790Y333050D01*
X113636Y333895D01*
X114234Y334931D01*
X114543Y336087D01*
Y337283D01*
X114234Y338439D01*
X113636Y339475D01*
X112790Y340321D01*
X111754Y340919D01*
X110598Y341228D01*
D02*
G37*
G36*
X228555Y340218D02*
X227445D01*
X226372Y339931D01*
X225410Y339376D01*
X224624Y338590D01*
X224069Y337628D01*
X223781Y336555D01*
Y335445D01*
X224069Y334372D01*
X224624Y333410D01*
X225410Y332624D01*
X226372Y332069D01*
X227445Y331782D01*
X228555D01*
X229628Y332069D01*
X230590Y332624D01*
X231376Y333410D01*
X231931Y334372D01*
X232219Y335445D01*
Y336555D01*
X231931Y337628D01*
X231376Y338590D01*
X230590Y339376D01*
X229628Y339931D01*
X228555Y340218D01*
D02*
G37*
G36*
X222174Y331500D02*
X220500D01*
Y329826D01*
X221246Y330135D01*
X221865Y330754D01*
X222174Y331500D01*
D02*
G37*
G36*
X219500D02*
X217826D01*
X218135Y330754D01*
X218754Y330135D01*
X219500Y329826D01*
Y331500D01*
D02*
G37*
G36*
X228555Y330219D02*
X228500D01*
Y326500D01*
X232219D01*
Y326555D01*
X231931Y327628D01*
X231376Y328590D01*
X230590Y329376D01*
X229628Y329931D01*
X228555Y330219D01*
D02*
G37*
G36*
X227500D02*
X227445D01*
X226372Y329931D01*
X225410Y329376D01*
X224624Y328590D01*
X224069Y327628D01*
X223781Y326555D01*
Y326500D01*
X227500D01*
Y330219D01*
D02*
G37*
G36*
X137477Y327688D02*
Y326014D01*
X139151D01*
X138842Y326760D01*
X138223Y327379D01*
X137477Y327688D01*
D02*
G37*
G36*
X136477D02*
X135731Y327379D01*
X135112Y326760D01*
X134803Y326014D01*
X136477D01*
Y327688D01*
D02*
G37*
G36*
X139151Y325014D02*
X137477D01*
Y323340D01*
X138223Y323649D01*
X138842Y324268D01*
X139151Y325014D01*
D02*
G37*
G36*
X136477D02*
X134803D01*
X135112Y324268D01*
X135731Y323649D01*
X136477Y323340D01*
Y325014D01*
D02*
G37*
G36*
X232219Y325500D02*
X228500D01*
Y321781D01*
X228555D01*
X229628Y322069D01*
X230590Y322624D01*
X231376Y323410D01*
X231931Y324372D01*
X232219Y325445D01*
Y325500D01*
D02*
G37*
G36*
X227500D02*
X223781D01*
Y325445D01*
X224069Y324372D01*
X224624Y323410D01*
X225410Y322624D01*
X226372Y322069D01*
X227445Y321781D01*
X227500D01*
Y325500D01*
D02*
G37*
G36*
X220321Y321616D02*
Y319942D01*
X221995D01*
X221686Y320688D01*
X221067Y321307D01*
X220321Y321616D01*
D02*
G37*
G36*
X219321D02*
X218575Y321307D01*
X217956Y320688D01*
X217647Y319942D01*
X219321D01*
Y321616D01*
D02*
G37*
G36*
X114543Y321543D02*
X110500D01*
Y317500D01*
X114543D01*
Y321543D01*
D02*
G37*
G36*
X109500D02*
X105457D01*
Y317500D01*
X109500D01*
Y321543D01*
D02*
G37*
G36*
X221995Y318942D02*
X220321D01*
Y317268D01*
X221067Y317577D01*
X221686Y318196D01*
X221995Y318942D01*
D02*
G37*
G36*
X219321D02*
X217647D01*
X217956Y318196D01*
X218575Y317577D01*
X219321Y317268D01*
Y318942D01*
D02*
G37*
G36*
X114543Y316500D02*
X110500D01*
Y312457D01*
X114543D01*
Y316500D01*
D02*
G37*
G36*
X109500D02*
X105457D01*
Y312457D01*
X109500D01*
Y316500D01*
D02*
G37*
G36*
X228555Y320218D02*
X227445D01*
X226372Y319931D01*
X225410Y319376D01*
X224624Y318590D01*
X224069Y317628D01*
X223781Y316555D01*
Y315445D01*
X224069Y314372D01*
X224624Y313410D01*
X225410Y312624D01*
X226372Y312069D01*
X227445Y311782D01*
X228555D01*
X229628Y312069D01*
X230590Y312624D01*
X231376Y313410D01*
X231931Y314372D01*
X232219Y315445D01*
Y316555D01*
X231931Y317628D01*
X231376Y318590D01*
X230590Y319376D01*
X229628Y319931D01*
X228555Y320218D01*
D02*
G37*
G36*
X196546Y319150D02*
X195454D01*
X194398Y318867D01*
X193452Y318320D01*
X192680Y317548D01*
X192133Y316602D01*
X191850Y315546D01*
Y314454D01*
X192133Y313398D01*
X192680Y312452D01*
X193452Y311680D01*
X194398Y311133D01*
X195454Y310850D01*
X196546D01*
X197602Y311133D01*
X198548Y311680D01*
X199320Y312452D01*
X199867Y313398D01*
X200150Y314454D01*
Y315546D01*
X199867Y316602D01*
X199320Y317548D01*
X198548Y318320D01*
X197602Y318867D01*
X196546Y319150D01*
D02*
G37*
G36*
X186546D02*
X185454D01*
X184398Y318867D01*
X183452Y318320D01*
X182679Y317548D01*
X182133Y316602D01*
X181850Y315546D01*
Y314454D01*
X182133Y313398D01*
X182679Y312452D01*
X183452Y311680D01*
X184398Y311133D01*
X185454Y310850D01*
X186546D01*
X187602Y311133D01*
X188548Y311680D01*
X189321Y312452D01*
X189867Y313398D01*
X190150Y314454D01*
Y315546D01*
X189867Y316602D01*
X189321Y317548D01*
X188548Y318320D01*
X187602Y318867D01*
X186546Y319150D01*
D02*
G37*
G36*
X176546D02*
X175454D01*
X174398Y318867D01*
X173452Y318320D01*
X172679Y317548D01*
X172133Y316602D01*
X171850Y315546D01*
Y314454D01*
X172133Y313398D01*
X172679Y312452D01*
X173452Y311680D01*
X174398Y311133D01*
X175454Y310850D01*
X176546D01*
X177602Y311133D01*
X178548Y311680D01*
X179321Y312452D01*
X179867Y313398D01*
X180150Y314454D01*
Y315546D01*
X179867Y316602D01*
X179321Y317548D01*
X178548Y318320D01*
X177602Y318867D01*
X176546Y319150D01*
D02*
G37*
G36*
X166546D02*
X165454D01*
X164398Y318867D01*
X163452Y318320D01*
X162680Y317548D01*
X162133Y316602D01*
X161850Y315546D01*
Y314454D01*
X162133Y313398D01*
X162680Y312452D01*
X163452Y311680D01*
X164398Y311133D01*
X165454Y310850D01*
X166546D01*
X167602Y311133D01*
X168548Y311680D01*
X169320Y312452D01*
X169867Y313398D01*
X170150Y314454D01*
Y315546D01*
X169867Y316602D01*
X169320Y317548D01*
X168548Y318320D01*
X167602Y318867D01*
X166546Y319150D01*
D02*
G37*
G36*
X156546D02*
X155454D01*
X154398Y318867D01*
X153452Y318320D01*
X152680Y317548D01*
X152133Y316602D01*
X151850Y315546D01*
Y314454D01*
X152133Y313398D01*
X152680Y312452D01*
X153452Y311680D01*
X154398Y311133D01*
X155454Y310850D01*
X156546D01*
X157602Y311133D01*
X158548Y311680D01*
X159320Y312452D01*
X159867Y313398D01*
X160150Y314454D01*
Y315546D01*
X159867Y316602D01*
X159320Y317548D01*
X158548Y318320D01*
X157602Y318867D01*
X156546Y319150D01*
D02*
G37*
G36*
X146546D02*
X145454D01*
X144398Y318867D01*
X143452Y318320D01*
X142680Y317548D01*
X142133Y316602D01*
X141850Y315546D01*
Y314454D01*
X142133Y313398D01*
X142680Y312452D01*
X143452Y311680D01*
X144398Y311133D01*
X145454Y310850D01*
X146546D01*
X147602Y311133D01*
X148548Y311680D01*
X149320Y312452D01*
X149867Y313398D01*
X150150Y314454D01*
Y315546D01*
X149867Y316602D01*
X149320Y317548D01*
X148548Y318320D01*
X147602Y318867D01*
X146546Y319150D01*
D02*
G37*
G36*
X207575Y319172D02*
X204425D01*
X203753Y319083D01*
X203127Y318824D01*
X202589Y318411D01*
X202176Y317873D01*
X201917Y317247D01*
X201828Y316575D01*
Y313425D01*
X201917Y312753D01*
X202176Y312127D01*
X202589Y311589D01*
X203127Y311176D01*
X203753Y310917D01*
X204425Y310828D01*
X207575D01*
X208247Y310917D01*
X208873Y311176D01*
X209411Y311589D01*
X209824Y312127D01*
X210083Y312753D01*
X210172Y313425D01*
Y316575D01*
X210083Y317247D01*
X209824Y317873D01*
X209411Y318411D01*
X208873Y318824D01*
X208247Y319083D01*
X207575Y319172D01*
D02*
G37*
G36*
X156500Y306174D02*
Y304500D01*
X158174D01*
X157865Y305246D01*
X157246Y305865D01*
X156500Y306174D01*
D02*
G37*
G36*
X155500D02*
X154754Y305865D01*
X154135Y305246D01*
X153826Y304500D01*
X155500D01*
Y306174D01*
D02*
G37*
G36*
X158174Y303500D02*
X156500D01*
Y301826D01*
X157246Y302135D01*
X157865Y302754D01*
X158174Y303500D01*
D02*
G37*
G36*
X155500D02*
X153826D01*
X154135Y302754D01*
X154754Y302135D01*
X155500Y301826D01*
Y303500D01*
D02*
G37*
G36*
X185627Y294408D02*
Y292734D01*
X187302D01*
X186993Y293480D01*
X186374Y294099D01*
X185627Y294408D01*
D02*
G37*
G36*
X184627D02*
X183881Y294099D01*
X183262Y293480D01*
X182953Y292734D01*
X184627D01*
Y294408D01*
D02*
G37*
G36*
X221500Y294174D02*
Y292500D01*
X223174D01*
X222865Y293246D01*
X222246Y293865D01*
X221500Y294174D01*
D02*
G37*
G36*
X220500D02*
X219754Y293865D01*
X219135Y293246D01*
X218826Y292500D01*
X220500D01*
Y294174D01*
D02*
G37*
G36*
X202156Y294021D02*
X201281D01*
X200473Y293686D01*
X199854Y293067D01*
X199519Y292258D01*
Y292051D01*
X199193Y292838D01*
X198574Y293457D01*
X197765Y293792D01*
X196890D01*
X196081Y293457D01*
X195463Y292838D01*
X195128Y292029D01*
Y291154D01*
X195463Y290346D01*
X195492Y290316D01*
Y286886D01*
X195304Y286605D01*
X195281Y286488D01*
X195165Y285903D01*
Y279276D01*
X195135Y279246D01*
X194800Y278438D01*
Y277562D01*
X195135Y276754D01*
X195754Y276135D01*
X196562Y275800D01*
X197438D01*
X198246Y276135D01*
X198345Y276233D01*
X198702Y276304D01*
X199298Y276702D01*
X199696Y277298D01*
X199800Y277823D01*
Y277562D01*
X200135Y276754D01*
X200754Y276135D01*
X201562Y275800D01*
X202438D01*
X203246Y276135D01*
X203865Y276754D01*
X204200Y277562D01*
Y278438D01*
X203865Y279246D01*
X203554Y279557D01*
Y290545D01*
X203584Y290575D01*
X203919Y291383D01*
Y292258D01*
X203584Y293067D01*
X202965Y293686D01*
X202156Y294021D01*
D02*
G37*
G36*
X187302Y291734D02*
X185627D01*
Y290059D01*
X186374Y290369D01*
X186993Y290987D01*
X187302Y291734D01*
D02*
G37*
G36*
X184627D02*
X182953D01*
X183262Y290987D01*
X183881Y290369D01*
X184627Y290059D01*
Y291734D01*
D02*
G37*
G36*
X223174Y291500D02*
X221500D01*
Y289826D01*
X222246Y290135D01*
X222865Y290754D01*
X223174Y291500D01*
D02*
G37*
G36*
X220500D02*
X218826D01*
X219135Y290754D01*
X219754Y290135D01*
X220500Y289826D01*
Y291500D01*
D02*
G37*
G36*
X130438Y272200D02*
X129562D01*
X128754Y271865D01*
X128418Y271529D01*
X112000D01*
X111415Y271413D01*
X110919Y271081D01*
X107919Y268081D01*
X107587Y267585D01*
X107471Y267000D01*
Y253000D01*
X107587Y252415D01*
X107919Y251919D01*
X109800Y250037D01*
Y249562D01*
X110135Y248754D01*
X110471Y248418D01*
Y224575D01*
X108662Y222766D01*
X108330Y222270D01*
X108214Y221685D01*
Y213000D01*
Y176000D01*
Y141257D01*
X108330Y140671D01*
X108662Y140175D01*
X109800Y139037D01*
Y138562D01*
X110135Y137754D01*
X110754Y137135D01*
X111562Y136800D01*
X112438D01*
X113246Y137135D01*
X113865Y137754D01*
X114200Y138562D01*
Y139438D01*
X113865Y140246D01*
X113246Y140865D01*
X112438Y141200D01*
X111963D01*
X111273Y141890D01*
Y145616D01*
X111754Y145135D01*
X112500Y144826D01*
Y147000D01*
Y149174D01*
X111754Y148865D01*
X111273Y148384D01*
Y173920D01*
X111562Y173800D01*
X112438D01*
X113246Y174135D01*
X113865Y174754D01*
X114200Y175562D01*
Y176438D01*
X113865Y177246D01*
X113246Y177865D01*
X112438Y178200D01*
X111562D01*
X111273Y178080D01*
Y182616D01*
X111754Y182135D01*
X112500Y181826D01*
Y184000D01*
Y186174D01*
X111754Y185865D01*
X111273Y185384D01*
Y210920D01*
X111562Y210800D01*
X112438D01*
X113246Y211135D01*
X113865Y211754D01*
X114200Y212562D01*
Y213438D01*
X113865Y214246D01*
X113246Y214865D01*
X112438Y215200D01*
X111562D01*
X111273Y215080D01*
Y221052D01*
X111900Y221679D01*
X111826Y221500D01*
X113500D01*
Y223174D01*
X113211Y223055D01*
X113413Y223356D01*
X113529Y223942D01*
Y248418D01*
X113865Y248754D01*
X114200Y249562D01*
Y250438D01*
X113865Y251246D01*
X113246Y251865D01*
X112438Y252200D01*
X111963D01*
X110529Y253633D01*
Y256359D01*
X110754Y256135D01*
X111500Y255826D01*
Y258000D01*
Y260174D01*
X110754Y259865D01*
X110529Y259641D01*
Y266367D01*
X112634Y268471D01*
X128418D01*
X128754Y268135D01*
X129562Y267800D01*
X130438D01*
X131246Y268135D01*
X131865Y268754D01*
X132200Y269562D01*
Y270438D01*
X131865Y271246D01*
X131246Y271865D01*
X130438Y272200D01*
D02*
G37*
G36*
X112500Y260174D02*
Y258500D01*
X114174D01*
X113865Y259246D01*
X113246Y259865D01*
X112500Y260174D01*
D02*
G37*
G36*
X114174Y257500D02*
X112500D01*
Y255826D01*
X113246Y256135D01*
X113865Y256754D01*
X114174Y257500D01*
D02*
G37*
G36*
X165481Y298531D02*
X164606D01*
X163797Y298196D01*
X163178Y297577D01*
X162843Y296768D01*
Y295893D01*
X163178Y295084D01*
X163797Y294465D01*
X164500Y294174D01*
X163754Y293865D01*
X163135Y293246D01*
X162826Y292500D01*
X165000D01*
Y291500D01*
X162826D01*
X163119Y290793D01*
X162717Y290627D01*
X162098Y290008D01*
X161763Y289200D01*
Y288324D01*
X162098Y287516D01*
X162702Y286912D01*
Y286369D01*
X162818Y285784D01*
X163150Y285287D01*
X178800Y269637D01*
Y269162D01*
X179135Y268354D01*
X179754Y267735D01*
X180562Y267400D01*
X181438D01*
X182246Y267735D01*
X182865Y268354D01*
X182913Y268471D01*
X212367D01*
X226800Y254037D01*
Y253562D01*
X227135Y252754D01*
X227754Y252135D01*
X227771Y252128D01*
Y247341D01*
X227246Y247865D01*
X226500Y248174D01*
Y246000D01*
Y243826D01*
X227246Y244135D01*
X227771Y244659D01*
Y218872D01*
X227754Y218865D01*
X227135Y218246D01*
X226800Y217438D01*
Y216562D01*
X227135Y215754D01*
X227754Y215135D01*
X227771Y215128D01*
Y210341D01*
X227246Y210865D01*
X226500Y211174D01*
Y209000D01*
Y206826D01*
X227246Y207135D01*
X227771Y207659D01*
Y181872D01*
X227754Y181865D01*
X227135Y181246D01*
X226800Y180438D01*
Y179562D01*
X227135Y178754D01*
X227754Y178135D01*
X227771Y178128D01*
Y173341D01*
X227246Y173865D01*
X226500Y174174D01*
Y172000D01*
X226000D01*
Y171500D01*
X223826D01*
X224135Y170754D01*
X224754Y170135D01*
X225562Y169800D01*
X226438D01*
X226471Y169814D01*
X226471Y169812D01*
Y145582D01*
X226135Y145246D01*
X225800Y144438D01*
Y143562D01*
X226135Y142754D01*
X226754Y142135D01*
X227562Y141800D01*
X228438D01*
X229246Y142135D01*
X229865Y142754D01*
X230200Y143562D01*
Y144438D01*
X229865Y145246D01*
X229529Y145582D01*
Y169179D01*
X230381Y170031D01*
X230713Y170527D01*
X230829Y171112D01*
Y178718D01*
X230865Y178754D01*
X231200Y179562D01*
Y180438D01*
X230865Y181246D01*
X230829Y181282D01*
Y215718D01*
X230865Y215754D01*
X231200Y216562D01*
Y217438D01*
X230865Y218246D01*
X230829Y218282D01*
Y252718D01*
X230865Y252754D01*
X231200Y253562D01*
Y254438D01*
X231059Y254778D01*
X231800Y254037D01*
Y253562D01*
X232135Y252754D01*
X232754Y252135D01*
X233562Y251800D01*
X234438D01*
X235246Y252135D01*
X235865Y252754D01*
X236200Y253562D01*
Y254438D01*
X235865Y255246D01*
X235246Y255865D01*
X234438Y256200D01*
X233963D01*
X216081Y274081D01*
X215585Y274413D01*
X215000Y274529D01*
X183000D01*
X182455Y275074D01*
X181647Y275409D01*
X181172D01*
X169529Y287052D01*
Y294200D01*
X169413Y294785D01*
X169081Y295281D01*
X167886Y296476D01*
X167390Y296808D01*
X167212Y296843D01*
X166908Y297577D01*
X166289Y298196D01*
X165481Y298531D01*
D02*
G37*
G36*
X225500Y248174D02*
X224754Y247865D01*
X224135Y247246D01*
X223826Y246500D01*
X225500D01*
Y248174D01*
D02*
G37*
G36*
Y245500D02*
X223826D01*
X224135Y244754D01*
X224754Y244135D01*
X225500Y243826D01*
Y245500D01*
D02*
G37*
G36*
X199563Y248278D02*
X198437D01*
X197349Y247986D01*
X196373Y247423D01*
X195577Y246626D01*
X195014Y245651D01*
X194722Y244563D01*
Y243437D01*
X195014Y242349D01*
X195577Y241373D01*
X196373Y240577D01*
X197349Y240014D01*
X198437Y239722D01*
X199563D01*
X200651Y240014D01*
X201626Y240577D01*
X202423Y241373D01*
X202986Y242349D01*
X203278Y243437D01*
Y244563D01*
X202986Y245651D01*
X202423Y246626D01*
X201626Y247423D01*
X200651Y247986D01*
X199563Y248278D01*
D02*
G37*
G36*
X189563D02*
X188437D01*
X187349Y247986D01*
X186373Y247423D01*
X185577Y246626D01*
X185014Y245651D01*
X184722Y244563D01*
Y243437D01*
X185014Y242349D01*
X185577Y241373D01*
X186373Y240577D01*
X187349Y240014D01*
X188437Y239722D01*
X189563D01*
X190651Y240014D01*
X191627Y240577D01*
X192423Y241373D01*
X192986Y242349D01*
X193278Y243437D01*
Y244563D01*
X192986Y245651D01*
X192423Y246626D01*
X191627Y247423D01*
X190651Y247986D01*
X189563Y248278D01*
D02*
G37*
G36*
X179563D02*
X178437D01*
X177349Y247986D01*
X176374Y247423D01*
X175577Y246626D01*
X175014Y245651D01*
X174722Y244563D01*
Y243437D01*
X175014Y242349D01*
X175577Y241373D01*
X176374Y240577D01*
X177349Y240014D01*
X178437Y239722D01*
X179563D01*
X180651Y240014D01*
X181626Y240577D01*
X182423Y241373D01*
X182986Y242349D01*
X183278Y243437D01*
Y244563D01*
X182986Y245651D01*
X182423Y246626D01*
X181626Y247423D01*
X180651Y247986D01*
X179563Y248278D01*
D02*
G37*
G36*
X169563D02*
X168437D01*
X167349Y247986D01*
X166374Y247423D01*
X165577Y246626D01*
X165014Y245651D01*
X164722Y244563D01*
Y243437D01*
X165014Y242349D01*
X165577Y241373D01*
X166374Y240577D01*
X167349Y240014D01*
X168437Y239722D01*
X169563D01*
X170651Y240014D01*
X171626Y240577D01*
X172423Y241373D01*
X172986Y242349D01*
X173278Y243437D01*
Y244563D01*
X172986Y245651D01*
X172423Y246626D01*
X171626Y247423D01*
X170651Y247986D01*
X169563Y248278D01*
D02*
G37*
G36*
X159563D02*
X158437D01*
X157349Y247986D01*
X156374Y247423D01*
X155577Y246626D01*
X155014Y245651D01*
X154722Y244563D01*
Y243437D01*
X155014Y242349D01*
X155577Y241373D01*
X156374Y240577D01*
X157349Y240014D01*
X158437Y239722D01*
X159563D01*
X160651Y240014D01*
X161627Y240577D01*
X162423Y241373D01*
X162986Y242349D01*
X163278Y243437D01*
Y244563D01*
X162986Y245651D01*
X162423Y246626D01*
X161627Y247423D01*
X160651Y247986D01*
X159563Y248278D01*
D02*
G37*
G36*
X149563D02*
X148437D01*
X147349Y247986D01*
X146373Y247423D01*
X145577Y246626D01*
X145014Y245651D01*
X144722Y244563D01*
Y243437D01*
X145014Y242349D01*
X145577Y241373D01*
X146373Y240577D01*
X147349Y240014D01*
X148437Y239722D01*
X149563D01*
X150651Y240014D01*
X151627Y240577D01*
X152423Y241373D01*
X152986Y242349D01*
X153278Y243437D01*
Y244563D01*
X152986Y245651D01*
X152423Y246626D01*
X151627Y247423D01*
X150651Y247986D01*
X149563Y248278D01*
D02*
G37*
G36*
X139563D02*
X138437D01*
X137349Y247986D01*
X136373Y247423D01*
X135577Y246626D01*
X135014Y245651D01*
X134722Y244563D01*
Y243437D01*
X135014Y242349D01*
X135577Y241373D01*
X136373Y240577D01*
X137349Y240014D01*
X138437Y239722D01*
X139563D01*
X140651Y240014D01*
X141627Y240577D01*
X142423Y241373D01*
X142986Y242349D01*
X143278Y243437D01*
Y244563D01*
X142986Y245651D01*
X142423Y246626D01*
X141627Y247423D01*
X140651Y247986D01*
X139563Y248278D01*
D02*
G37*
G36*
X199563Y238278D02*
X198437D01*
X197349Y237986D01*
X196373Y237423D01*
X195577Y236627D01*
X195014Y235651D01*
X194722Y234563D01*
Y233437D01*
X195014Y232349D01*
X195577Y231374D01*
X196373Y230577D01*
X197349Y230014D01*
X198437Y229722D01*
X199563D01*
X200651Y230014D01*
X201626Y230577D01*
X202423Y231374D01*
X202986Y232349D01*
X203278Y233437D01*
Y234563D01*
X202986Y235651D01*
X202423Y236627D01*
X201626Y237423D01*
X200651Y237986D01*
X199563Y238278D01*
D02*
G37*
G36*
X139563D02*
X138437D01*
X137349Y237986D01*
X136373Y237423D01*
X135577Y236627D01*
X135014Y235651D01*
X134722Y234563D01*
Y233437D01*
X135014Y232349D01*
X135577Y231374D01*
X136373Y230577D01*
X137349Y230014D01*
X138437Y229722D01*
X139563D01*
X140651Y230014D01*
X141627Y230577D01*
X142423Y231374D01*
X142986Y232349D01*
X143278Y233437D01*
Y234563D01*
X142986Y235651D01*
X142423Y236627D01*
X141627Y237423D01*
X140651Y237986D01*
X139563Y238278D01*
D02*
G37*
G36*
X114500Y223174D02*
Y221500D01*
X116174D01*
X115865Y222246D01*
X115246Y222865D01*
X114500Y223174D01*
D02*
G37*
G36*
X199563Y228278D02*
X198437D01*
X197349Y227986D01*
X196373Y227423D01*
X195577Y226626D01*
X195014Y225651D01*
X194722Y224563D01*
Y223437D01*
X195014Y222349D01*
X195577Y221374D01*
X196373Y220577D01*
X197349Y220014D01*
X198437Y219722D01*
X199563D01*
X200651Y220014D01*
X201626Y220577D01*
X202423Y221374D01*
X202986Y222349D01*
X203278Y223437D01*
Y224563D01*
X202986Y225651D01*
X202423Y226626D01*
X201626Y227423D01*
X200651Y227986D01*
X199563Y228278D01*
D02*
G37*
G36*
X139563D02*
X138437D01*
X137349Y227986D01*
X136373Y227423D01*
X135577Y226626D01*
X135014Y225651D01*
X134722Y224563D01*
Y223437D01*
X135014Y222349D01*
X135577Y221374D01*
X136373Y220577D01*
X137349Y220014D01*
X138437Y219722D01*
X139563D01*
X140651Y220014D01*
X141627Y220577D01*
X142423Y221374D01*
X142986Y222349D01*
X143278Y223437D01*
Y224563D01*
X142986Y225651D01*
X142423Y226626D01*
X141627Y227423D01*
X140651Y227986D01*
X139563Y228278D01*
D02*
G37*
G36*
X116174Y220500D02*
X114500D01*
Y218826D01*
X115246Y219135D01*
X115865Y219754D01*
X116174Y220500D01*
D02*
G37*
G36*
X113500D02*
X111826D01*
X112135Y219754D01*
X112754Y219135D01*
X113500Y218826D01*
Y220500D01*
D02*
G37*
G36*
X199563Y218278D02*
X198437D01*
X197349Y217986D01*
X196373Y217423D01*
X195577Y216627D01*
X195014Y215651D01*
X194722Y214563D01*
Y213437D01*
X195014Y212349D01*
X195577Y211373D01*
X196373Y210577D01*
X197349Y210014D01*
X198437Y209722D01*
X199563D01*
X200651Y210014D01*
X201626Y210577D01*
X202423Y211373D01*
X202986Y212349D01*
X203278Y213437D01*
Y214563D01*
X202986Y215651D01*
X202423Y216627D01*
X201626Y217423D01*
X200651Y217986D01*
X199563Y218278D01*
D02*
G37*
G36*
X139563D02*
X138437D01*
X137349Y217986D01*
X136373Y217423D01*
X135577Y216627D01*
X135014Y215651D01*
X134722Y214563D01*
Y213437D01*
X135014Y212349D01*
X135577Y211373D01*
X136373Y210577D01*
X137349Y210014D01*
X138437Y209722D01*
X139563D01*
X140651Y210014D01*
X141627Y210577D01*
X142423Y211373D01*
X142986Y212349D01*
X143278Y213437D01*
Y214563D01*
X142986Y215651D01*
X142423Y216627D01*
X141627Y217423D01*
X140651Y217986D01*
X139563Y218278D01*
D02*
G37*
G36*
X225500Y211174D02*
X224754Y210865D01*
X224135Y210246D01*
X223826Y209500D01*
X225500D01*
Y211174D01*
D02*
G37*
G36*
Y208500D02*
X223826D01*
X224135Y207754D01*
X224754Y207135D01*
X225500Y206826D01*
Y208500D01*
D02*
G37*
G36*
X199563Y208278D02*
X198437D01*
X197349Y207986D01*
X196373Y207423D01*
X195577Y206627D01*
X195014Y205651D01*
X194722Y204563D01*
Y203437D01*
X195014Y202349D01*
X195577Y201374D01*
X196373Y200577D01*
X197349Y200014D01*
X198437Y199722D01*
X199563D01*
X200651Y200014D01*
X201626Y200577D01*
X202423Y201374D01*
X202986Y202349D01*
X203278Y203437D01*
Y204563D01*
X202986Y205651D01*
X202423Y206627D01*
X201626Y207423D01*
X200651Y207986D01*
X199563Y208278D01*
D02*
G37*
G36*
X136546Y319150D02*
X135454D01*
X134398Y318867D01*
X133452Y318320D01*
X132679Y317548D01*
X132133Y316602D01*
X131850Y315546D01*
Y314454D01*
X132133Y313398D01*
X132679Y312452D01*
X133452Y311680D01*
X134398Y311133D01*
X135454Y310850D01*
X135823D01*
X135883Y310547D01*
X135906Y310431D01*
X136304Y309836D01*
X140165Y305975D01*
Y268049D01*
X129558Y257442D01*
X129116Y256780D01*
X128961Y256000D01*
Y212000D01*
X129116Y211220D01*
X129558Y210558D01*
X134898Y205218D01*
X134722Y204563D01*
Y203437D01*
X135014Y202349D01*
X135577Y201374D01*
X136373Y200577D01*
X137349Y200014D01*
X138437Y199722D01*
X139563D01*
X140651Y200014D01*
X141627Y200577D01*
X142423Y201374D01*
X142986Y202349D01*
X143278Y203437D01*
Y204563D01*
X142986Y205651D01*
X142423Y206627D01*
X141627Y207423D01*
X140651Y207986D01*
X139563Y208278D01*
X138437D01*
X137782Y208102D01*
X133039Y212845D01*
Y255155D01*
X143442Y265558D01*
X143884Y266220D01*
X144039Y267000D01*
X143884Y267780D01*
X143835Y267853D01*
Y306735D01*
X143719Y307321D01*
X143696Y307437D01*
X143298Y308033D01*
X139437Y311893D01*
Y312127D01*
X139359Y312519D01*
X139867Y313398D01*
X140150Y314454D01*
Y315546D01*
X139867Y316602D01*
X139321Y317548D01*
X138548Y318320D01*
X137602Y318867D01*
X136546Y319150D01*
D02*
G37*
G36*
X199563Y198278D02*
X198437D01*
X197349Y197986D01*
X196373Y197423D01*
X195577Y196626D01*
X195014Y195651D01*
X194722Y194563D01*
Y193437D01*
X195014Y192349D01*
X195577Y191374D01*
X196373Y190577D01*
X197349Y190014D01*
X198437Y189722D01*
X199563D01*
X200651Y190014D01*
X201626Y190577D01*
X202423Y191374D01*
X202986Y192349D01*
X203278Y193437D01*
Y194563D01*
X202986Y195651D01*
X202423Y196626D01*
X201626Y197423D01*
X200651Y197986D01*
X199563Y198278D01*
D02*
G37*
G36*
X139563D02*
X138437D01*
X137349Y197986D01*
X136373Y197423D01*
X135577Y196626D01*
X135014Y195651D01*
X134722Y194563D01*
Y193437D01*
X135014Y192349D01*
X135577Y191374D01*
X136373Y190577D01*
X137349Y190014D01*
X138437Y189722D01*
X139563D01*
X140651Y190014D01*
X141627Y190577D01*
X142423Y191374D01*
X142986Y192349D01*
X143278Y193437D01*
Y194563D01*
X142986Y195651D01*
X142423Y196626D01*
X141627Y197423D01*
X140651Y197986D01*
X139563Y198278D01*
D02*
G37*
G36*
X215720Y256103D02*
X214844D01*
X214036Y255768D01*
X213417Y255149D01*
X213082Y254341D01*
Y253465D01*
X213417Y252657D01*
X213490Y252584D01*
Y205797D01*
X208846Y201153D01*
X208493Y200624D01*
X208369Y200000D01*
Y195676D01*
X200669Y187976D01*
X200651Y187986D01*
X199563Y188278D01*
X198437D01*
X197349Y187986D01*
X196373Y187423D01*
X195577Y186627D01*
X195014Y185651D01*
X194722Y184563D01*
Y183437D01*
X195014Y182349D01*
X195577Y181374D01*
X196373Y180577D01*
X197349Y180014D01*
X198437Y179722D01*
X199563D01*
X200651Y180014D01*
X201626Y180577D01*
X202423Y181374D01*
X202986Y182349D01*
X203278Y183437D01*
Y184563D01*
X202986Y185651D01*
X202976Y185669D01*
X211154Y193846D01*
X211507Y194376D01*
X211631Y195000D01*
Y199324D01*
X216275Y203968D01*
X216629Y204497D01*
X216753Y205121D01*
Y252263D01*
X217147Y252657D01*
X217482Y253465D01*
Y254341D01*
X217147Y255149D01*
X216528Y255768D01*
X215720Y256103D01*
D02*
G37*
G36*
X113500Y186174D02*
Y184500D01*
X115174D01*
X114865Y185246D01*
X114246Y185865D01*
X113500Y186174D01*
D02*
G37*
G36*
X115174Y183500D02*
X113500D01*
Y181826D01*
X114246Y182135D01*
X114865Y182754D01*
X115174Y183500D01*
D02*
G37*
G36*
X139563Y188278D02*
X138437D01*
X137349Y187986D01*
X136373Y187423D01*
X135577Y186627D01*
X135014Y185651D01*
X134722Y184563D01*
Y183437D01*
X135014Y182349D01*
X135577Y181374D01*
X136373Y180577D01*
X137349Y180014D01*
X138437Y179722D01*
X139563D01*
X140651Y180014D01*
X141627Y180577D01*
X142423Y181374D01*
X142986Y182349D01*
X143278Y183437D01*
Y184563D01*
X142986Y185651D01*
X142423Y186627D01*
X141627Y187423D01*
X140651Y187986D01*
X139563Y188278D01*
D02*
G37*
G36*
X225500Y174174D02*
X224754Y173865D01*
X224135Y173246D01*
X223826Y172500D01*
X225500D01*
Y174174D01*
D02*
G37*
G36*
X199563Y178278D02*
X198437D01*
X197349Y177986D01*
X196373Y177423D01*
X195577Y176627D01*
X195014Y175651D01*
X194722Y174563D01*
Y173437D01*
X195014Y172349D01*
X195577Y171373D01*
X196373Y170577D01*
X197349Y170014D01*
X198437Y169722D01*
X199563D01*
X200651Y170014D01*
X201626Y170577D01*
X202423Y171373D01*
X202948Y172284D01*
X209915D01*
X210135Y171754D01*
X210754Y171135D01*
X211562Y170800D01*
X212438D01*
X213246Y171135D01*
X213865Y171754D01*
X214200Y172562D01*
Y173438D01*
X213865Y174246D01*
X213246Y174865D01*
X212438Y175200D01*
X211562D01*
X211482Y175167D01*
X211393Y175226D01*
X210808Y175342D01*
X203069D01*
X202986Y175651D01*
X202423Y176627D01*
X201626Y177423D01*
X200651Y177986D01*
X199563Y178278D01*
D02*
G37*
G36*
X139563D02*
X138437D01*
X137349Y177986D01*
X136373Y177423D01*
X135577Y176627D01*
X135014Y175651D01*
X134722Y174563D01*
Y173437D01*
X135014Y172349D01*
X135577Y171373D01*
X136373Y170577D01*
X137349Y170014D01*
X138437Y169722D01*
X139563D01*
X140651Y170014D01*
X141627Y170577D01*
X142423Y171373D01*
X142986Y172349D01*
X143278Y173437D01*
Y174563D01*
X142986Y175651D01*
X142423Y176627D01*
X141627Y177423D01*
X140651Y177986D01*
X139563Y178278D01*
D02*
G37*
G36*
X199563Y168278D02*
X198437D01*
X197349Y167986D01*
X196373Y167423D01*
X195577Y166627D01*
X195014Y165651D01*
X194722Y164563D01*
Y163437D01*
X195014Y162349D01*
X195577Y161373D01*
X196373Y160577D01*
X197349Y160014D01*
X198437Y159722D01*
X199563D01*
X200651Y160014D01*
X201626Y160577D01*
X202423Y161373D01*
X202986Y162349D01*
X203019Y162471D01*
X212621D01*
X213206Y162587D01*
X213539Y162810D01*
X213562Y162800D01*
X214438D01*
X215246Y163135D01*
X215865Y163754D01*
X216200Y164562D01*
Y165438D01*
X215865Y166246D01*
X215246Y166865D01*
X214438Y167200D01*
X213562D01*
X212754Y166865D01*
X212135Y166246D01*
X211838Y165529D01*
X203019D01*
X202986Y165651D01*
X202423Y166627D01*
X201626Y167423D01*
X200651Y167986D01*
X199563Y168278D01*
D02*
G37*
G36*
X121438Y268200D02*
X120562D01*
X119754Y267865D01*
X119135Y267246D01*
X118800Y266438D01*
Y265562D01*
X119135Y264754D01*
X119369Y264520D01*
Y237480D01*
X119135Y237246D01*
X118800Y236438D01*
Y235562D01*
X119135Y234754D01*
X119369Y234520D01*
Y203676D01*
X118846Y203153D01*
X118493Y202624D01*
X118369Y202000D01*
Y197480D01*
X118135Y197246D01*
X117800Y196438D01*
Y195562D01*
X118135Y194754D01*
X118369Y194520D01*
Y165703D01*
X118076Y165410D01*
X117741Y164602D01*
Y163727D01*
X118076Y162918D01*
X118695Y162299D01*
X119503Y161964D01*
X120378D01*
X121187Y162299D01*
X121806Y162918D01*
X122141Y163727D01*
Y164602D01*
X121806Y165410D01*
X121631Y165585D01*
Y194520D01*
X121865Y194754D01*
X122200Y195562D01*
Y196438D01*
X121865Y197246D01*
X121631Y197480D01*
Y201324D01*
X122153Y201847D01*
X122507Y202376D01*
X122631Y203000D01*
Y234520D01*
X122865Y234754D01*
X123200Y235562D01*
Y236438D01*
X122865Y237246D01*
X122631Y237480D01*
Y264520D01*
X122865Y264754D01*
X123200Y265562D01*
Y266438D01*
X122865Y267246D01*
X122246Y267865D01*
X121438Y268200D01*
D02*
G37*
G36*
X139563Y168278D02*
X138437D01*
X137349Y167986D01*
X136373Y167423D01*
X135577Y166627D01*
X135014Y165651D01*
X134722Y164563D01*
Y163437D01*
X135014Y162349D01*
X135577Y161373D01*
X136373Y160577D01*
X137349Y160014D01*
X138437Y159722D01*
X139563D01*
X140651Y160014D01*
X141627Y160577D01*
X142423Y161373D01*
X142986Y162349D01*
X143278Y163437D01*
Y164563D01*
X142986Y165651D01*
X142423Y166627D01*
X141627Y167423D01*
X140651Y167986D01*
X139563Y168278D01*
D02*
G37*
G36*
X199563Y158278D02*
X198437D01*
X197349Y157986D01*
X196373Y157423D01*
X195577Y156626D01*
X195014Y155651D01*
X194722Y154563D01*
Y153437D01*
X195014Y152349D01*
X195577Y151374D01*
X196373Y150577D01*
X197349Y150014D01*
X198437Y149722D01*
X199563D01*
X200651Y150014D01*
X201626Y150577D01*
X202423Y151374D01*
X202986Y152349D01*
X203019Y152471D01*
X212418D01*
X212754Y152135D01*
X213562Y151800D01*
X214438D01*
X215246Y152135D01*
X215865Y152754D01*
X216200Y153562D01*
Y154438D01*
X215865Y155246D01*
X215246Y155865D01*
X214438Y156200D01*
X213562D01*
X212754Y155865D01*
X212418Y155529D01*
X203019D01*
X202986Y155651D01*
X202423Y156626D01*
X201626Y157423D01*
X200651Y157986D01*
X199563Y158278D01*
D02*
G37*
G36*
X139563D02*
X138437D01*
X137349Y157986D01*
X136373Y157423D01*
X135577Y156626D01*
X135014Y155651D01*
X134722Y154563D01*
Y153437D01*
X135014Y152349D01*
X135577Y151374D01*
X136373Y150577D01*
X137349Y150014D01*
X138437Y149722D01*
X139563D01*
X140651Y150014D01*
X141627Y150577D01*
X142423Y151374D01*
X142986Y152349D01*
X143278Y153437D01*
Y154563D01*
X142986Y155651D01*
X142423Y156626D01*
X141627Y157423D01*
X140651Y157986D01*
X139563Y158278D01*
D02*
G37*
G36*
X113500Y149174D02*
Y147500D01*
X115174D01*
X114865Y148246D01*
X114246Y148865D01*
X113500Y149174D01*
D02*
G37*
G36*
X115174Y146500D02*
X113500D01*
Y144826D01*
X114246Y145135D01*
X114865Y145754D01*
X115174Y146500D01*
D02*
G37*
G36*
X199563Y148278D02*
X198437D01*
X197349Y147986D01*
X196373Y147423D01*
X195577Y146626D01*
X195014Y145651D01*
X194722Y144563D01*
Y143437D01*
X195014Y142349D01*
X195577Y141374D01*
X196373Y140577D01*
X197349Y140014D01*
X198437Y139722D01*
X199563D01*
X200651Y140014D01*
X201626Y140577D01*
X202423Y141374D01*
X202986Y142349D01*
X203278Y143437D01*
Y144563D01*
X202986Y145651D01*
X202423Y146626D01*
X201626Y147423D01*
X200651Y147986D01*
X199563Y148278D01*
D02*
G37*
G36*
X139563D02*
X138437D01*
X137349Y147986D01*
X136373Y147423D01*
X135577Y146626D01*
X135014Y145651D01*
X134722Y144563D01*
Y143437D01*
X135014Y142349D01*
X135577Y141374D01*
X136373Y140577D01*
X137349Y140014D01*
X138437Y139722D01*
X139563D01*
X140651Y140014D01*
X141627Y140577D01*
X142423Y141374D01*
X142986Y142349D01*
X143278Y143437D01*
Y144563D01*
X142986Y145651D01*
X142423Y146626D01*
X141627Y147423D01*
X140651Y147986D01*
X139563Y148278D01*
D02*
G37*
G36*
X227500Y137174D02*
Y135500D01*
X229174D01*
X228865Y136246D01*
X228246Y136865D01*
X227500Y137174D01*
D02*
G37*
G36*
X226500D02*
X225754Y136865D01*
X225135Y136246D01*
X224826Y135500D01*
X226500D01*
Y137174D01*
D02*
G37*
G36*
X229174Y134500D02*
X227500D01*
Y132826D01*
X228246Y133135D01*
X228865Y133754D01*
X229174Y134500D01*
D02*
G37*
G36*
X226500D02*
X224826D01*
X225135Y133754D01*
X225754Y133135D01*
X226500Y132826D01*
Y134500D01*
D02*
G37*
G36*
X199563Y138278D02*
X198437D01*
X197349Y137986D01*
X196373Y137423D01*
X195577Y136627D01*
X195014Y135651D01*
X194722Y134563D01*
Y133437D01*
X195014Y132349D01*
X195577Y131374D01*
X196373Y130577D01*
X197349Y130014D01*
X198437Y129722D01*
X199563D01*
X200651Y130014D01*
X201626Y130577D01*
X202423Y131374D01*
X202986Y132349D01*
X203278Y133437D01*
Y134563D01*
X202986Y135651D01*
X202423Y136627D01*
X201626Y137423D01*
X200651Y137986D01*
X199563Y138278D01*
D02*
G37*
G36*
X139563D02*
X138437D01*
X137349Y137986D01*
X136373Y137423D01*
X135577Y136627D01*
X135014Y135651D01*
X134722Y134563D01*
Y133437D01*
X135014Y132349D01*
X135577Y131374D01*
X136373Y130577D01*
X137349Y130014D01*
X138437Y129722D01*
X139563D01*
X140651Y130014D01*
X141627Y130577D01*
X142423Y131374D01*
X142986Y132349D01*
X143278Y133437D01*
Y134563D01*
X142986Y135651D01*
X142423Y136627D01*
X141627Y137423D01*
X140651Y137986D01*
X139563Y138278D01*
D02*
G37*
G36*
X221438Y237200D02*
X220562D01*
X219754Y236865D01*
X219135Y236246D01*
X218800Y235438D01*
Y234562D01*
X219085Y233874D01*
Y195196D01*
X218976Y195087D01*
X218641Y194279D01*
Y193403D01*
X218976Y192595D01*
X219006Y192565D01*
Y165375D01*
X219123Y164789D01*
X219146Y164673D01*
X219544Y164077D01*
X220800Y162821D01*
Y162562D01*
X221135Y161754D01*
X221165Y161724D01*
Y153760D01*
X208702Y141298D01*
X208304Y140702D01*
X208281Y140586D01*
X208165Y140000D01*
Y135760D01*
X200446Y128041D01*
X199563Y128278D01*
X198437D01*
X197349Y127986D01*
X196373Y127423D01*
X195577Y126627D01*
X195014Y125651D01*
X194722Y124563D01*
Y123437D01*
X195014Y122349D01*
X195577Y121373D01*
X196373Y120577D01*
X197349Y120014D01*
X198437Y119722D01*
X199563D01*
X200651Y120014D01*
X201626Y120577D01*
X202423Y121373D01*
X202986Y122349D01*
X203278Y123437D01*
Y124563D01*
X203041Y125446D01*
X211298Y133702D01*
X211696Y134298D01*
X211719Y134414D01*
X211835Y135000D01*
Y139240D01*
X224298Y151702D01*
X224696Y152298D01*
X224835Y153000D01*
Y161724D01*
X224865Y161754D01*
X225200Y162562D01*
Y163438D01*
X224865Y164246D01*
X224246Y164865D01*
X223735Y165077D01*
X222676Y166135D01*
Y192565D01*
X222706Y192595D01*
X223041Y193403D01*
Y194279D01*
X222756Y194968D01*
Y233645D01*
X222865Y233754D01*
X223200Y234562D01*
Y235438D01*
X222865Y236246D01*
X222246Y236865D01*
X221438Y237200D01*
D02*
G37*
G36*
X139563Y128278D02*
X139500D01*
Y124500D01*
X143278D01*
Y124563D01*
X142986Y125651D01*
X142423Y126627D01*
X141627Y127423D01*
X140651Y127986D01*
X139563Y128278D01*
D02*
G37*
G36*
X138500D02*
X138437D01*
X137349Y127986D01*
X136373Y127423D01*
X135577Y126627D01*
X135014Y125651D01*
X134722Y124563D01*
Y124500D01*
X138500D01*
Y128278D01*
D02*
G37*
G36*
X143278Y123500D02*
X139500D01*
Y119722D01*
X139563D01*
X140651Y120014D01*
X141627Y120577D01*
X142423Y121373D01*
X142986Y122349D01*
X143278Y123437D01*
Y123500D01*
D02*
G37*
G36*
X138500D02*
X134722D01*
Y123437D01*
X135014Y122349D01*
X135577Y121373D01*
X136373Y120577D01*
X137349Y120014D01*
X138437Y119722D01*
X138500D01*
Y123500D01*
D02*
G37*
G36*
X111819Y118634D02*
X111600D01*
Y111835D01*
X118399D01*
Y112054D01*
X118119Y113464D01*
X117568Y114792D01*
X116770Y115988D01*
X115753Y117004D01*
X114557Y117803D01*
X113229Y118353D01*
X111819Y118634D01*
D02*
G37*
G36*
X110600D02*
X110381D01*
X108971Y118353D01*
X107642Y117803D01*
X106447Y117004D01*
X105430Y115988D01*
X104631Y114792D01*
X104081Y113464D01*
X103801Y112054D01*
Y111835D01*
X110600D01*
Y118634D01*
D02*
G37*
G36*
X231551Y118425D02*
X231332D01*
Y111626D01*
X238131D01*
Y111845D01*
X237850Y113255D01*
X237300Y114584D01*
X236501Y115779D01*
X235485Y116796D01*
X234289Y117595D01*
X232961Y118145D01*
X231551Y118425D01*
D02*
G37*
G36*
X230332D02*
X230113D01*
X228702Y118145D01*
X227374Y117595D01*
X226179Y116796D01*
X225162Y115779D01*
X224363Y114584D01*
X223813Y113255D01*
X223532Y111845D01*
Y111626D01*
X230332D01*
Y118425D01*
D02*
G37*
G36*
X199563Y118278D02*
X198437D01*
X197349Y117986D01*
X196373Y117423D01*
X195577Y116627D01*
X195014Y115651D01*
X194722Y114563D01*
Y113437D01*
X195014Y112349D01*
X195577Y111373D01*
X196373Y110577D01*
X197349Y110014D01*
X198437Y109722D01*
X199563D01*
X200651Y110014D01*
X201626Y110577D01*
X202423Y111373D01*
X202986Y112349D01*
X203278Y113437D01*
Y114563D01*
X202986Y115651D01*
X202423Y116627D01*
X201626Y117423D01*
X200651Y117986D01*
X199563Y118278D01*
D02*
G37*
G36*
X127438Y153200D02*
X126562D01*
X125754Y152865D01*
X125135Y152246D01*
X124800Y151438D01*
Y150562D01*
X125135Y149754D01*
X125165Y149724D01*
Y110000D01*
X125281Y109414D01*
X125304Y109298D01*
X125702Y108702D01*
X127702Y106702D01*
X128298Y106304D01*
X129000Y106165D01*
X178000D01*
X178586Y106281D01*
X178702Y106304D01*
X179298Y106702D01*
X187396Y114800D01*
X187438D01*
X188246Y115135D01*
X188865Y115754D01*
X189200Y116562D01*
Y117438D01*
X188865Y118246D01*
X188246Y118865D01*
X187438Y119200D01*
X186562D01*
X185754Y118865D01*
X185135Y118246D01*
X184800Y117438D01*
Y117395D01*
X177240Y109835D01*
X139984D01*
X140651Y110014D01*
X141627Y110577D01*
X142423Y111373D01*
X142986Y112349D01*
X143278Y113437D01*
Y114563D01*
X142986Y115651D01*
X142423Y116627D01*
X141627Y117423D01*
X140651Y117986D01*
X139563Y118278D01*
X138437D01*
X137349Y117986D01*
X136373Y117423D01*
X135577Y116627D01*
X135014Y115651D01*
X134722Y114563D01*
Y113437D01*
X135014Y112349D01*
X135577Y111373D01*
X136373Y110577D01*
X137349Y110014D01*
X138016Y109835D01*
X129760D01*
X128835Y110760D01*
Y149724D01*
X128865Y149754D01*
X129200Y150562D01*
Y151438D01*
X128865Y152246D01*
X128246Y152865D01*
X127438Y153200D01*
D02*
G37*
G36*
X118399Y110835D02*
X111600D01*
Y104035D01*
X111819D01*
X113229Y104316D01*
X114557Y104866D01*
X115753Y105665D01*
X116770Y106682D01*
X117568Y107877D01*
X118119Y109205D01*
X118399Y110616D01*
Y110835D01*
D02*
G37*
G36*
X110600D02*
X103801D01*
Y110616D01*
X104081Y109205D01*
X104631Y107877D01*
X105430Y106682D01*
X106447Y105665D01*
X107642Y104866D01*
X108971Y104316D01*
X110381Y104035D01*
X110600D01*
Y110835D01*
D02*
G37*
G36*
X238131Y110626D02*
X231332D01*
Y103827D01*
X231551D01*
X232961Y104107D01*
X234289Y104658D01*
X235485Y105456D01*
X236501Y106473D01*
X237300Y107669D01*
X237850Y108997D01*
X238131Y110407D01*
Y110626D01*
D02*
G37*
G36*
X230332D02*
X223532D01*
Y110407D01*
X223813Y108997D01*
X224363Y107669D01*
X225162Y106473D01*
X226179Y105456D01*
X227374Y104658D01*
X228702Y104107D01*
X230113Y103827D01*
X230332D01*
Y110626D01*
D02*
G37*
%LPD*%
D14*
X160000Y292000D02*
X165000D01*
X159000Y293000D02*
X160000Y292000D01*
X166358Y295395D02*
X166805D01*
X165422Y296331D02*
X166358Y295395D01*
X165043Y296331D02*
X165422D01*
X166805Y295395D02*
X168000Y294200D01*
Y286418D02*
Y294200D01*
X164231Y286369D02*
Y288494D01*
X163963Y288762D02*
X164231Y288494D01*
Y286369D02*
X181000Y269600D01*
X168000Y286418D02*
X181209Y273209D01*
X112000Y270000D02*
X130000D01*
X199000Y154000D02*
X214000D01*
X210808Y173813D02*
X211621Y173000D01*
X212000D01*
X199187Y173813D02*
X210808D01*
X199000Y174000D02*
X199187Y173813D01*
X199000Y164000D02*
X212621D01*
X213621Y165000D01*
X214000D01*
X181418Y273000D02*
X215000D01*
X234000Y254000D01*
X213000Y270000D02*
X229000Y254000D01*
X181000Y270000D02*
X213000D01*
X229300Y171112D02*
Y253700D01*
X109000Y267000D02*
X112000Y270000D01*
X109000Y253000D02*
X112000Y250000D01*
X109000Y253000D02*
Y267000D01*
X181209Y273209D02*
X181418Y273000D01*
X228000Y169812D02*
X229300Y171112D01*
X229000Y254000D02*
X229300Y253700D01*
X228000Y144000D02*
Y169812D01*
X109743Y213000D02*
Y221685D01*
X112000Y223942D01*
Y250000D01*
X109743Y176000D02*
Y213000D01*
X181000Y269600D02*
Y270000D01*
X109743Y213000D02*
X112000D01*
X109743Y141257D02*
Y176000D01*
X112000D01*
X109743Y141257D02*
X112000Y139000D01*
D35*
X142000Y267000D02*
Y306735D01*
X137602Y311133D02*
X142000Y306735D01*
X201719Y278281D02*
X202000Y278000D01*
X201719Y278281D02*
Y291821D01*
X197000Y279000D02*
X198000Y278000D01*
X197000D02*
X198000D01*
X197000Y285903D02*
X197328Y286230D01*
Y291592D01*
X197000Y279000D02*
Y285903D01*
X210000Y135000D02*
Y140000D01*
X199000Y124000D02*
X210000Y135000D01*
X129000Y108000D02*
X178000D01*
X187000Y117000D01*
X127000Y110000D02*
Y151000D01*
Y110000D02*
X129000Y108000D01*
X137602Y311133D02*
Y312127D01*
X136000Y313728D02*
Y315000D01*
Y313728D02*
X137602Y312127D01*
X220921Y193921D02*
Y234921D01*
X220841Y193841D02*
X220921Y193921D01*
Y234921D02*
X221000Y235000D01*
X220841Y165375D02*
X223000Y163216D01*
Y163000D02*
Y163216D01*
X220841Y165375D02*
Y193841D01*
X210000Y140000D02*
X223000Y153000D01*
Y163000D01*
D36*
X131000Y256000D02*
X142000Y267000D01*
X131000Y212000D02*
Y256000D01*
Y212000D02*
X139000Y204000D01*
D37*
X215122Y205121D02*
Y253743D01*
X215282Y253903D01*
X199000Y184000D02*
X210000Y195000D01*
Y200000D01*
X120000Y165000D02*
Y196000D01*
Y202000D01*
X121000Y203000D01*
Y236000D01*
Y266000D01*
X210000Y200000D02*
X215122Y205121D01*
D39*
X199000Y114000D02*
D03*
Y124000D02*
D03*
Y134000D02*
D03*
Y144000D02*
D03*
Y154000D02*
D03*
Y164000D02*
D03*
Y174000D02*
D03*
Y184000D02*
D03*
Y194000D02*
D03*
Y204000D02*
D03*
Y214000D02*
D03*
Y224000D02*
D03*
Y234000D02*
D03*
Y244000D02*
D03*
X189000D02*
D03*
X179000D02*
D03*
X169000D02*
D03*
X159000D02*
D03*
X149000D02*
D03*
X139000D02*
D03*
Y234000D02*
D03*
Y224000D02*
D03*
Y214000D02*
D03*
Y204000D02*
D03*
Y194000D02*
D03*
Y184000D02*
D03*
Y174000D02*
D03*
Y164000D02*
D03*
Y154000D02*
D03*
Y144000D02*
D03*
Y134000D02*
D03*
Y124000D02*
D03*
Y114000D02*
D03*
D40*
X228000Y336000D02*
D03*
Y326000D02*
D03*
Y316000D02*
D03*
D41*
X110000Y317000D02*
D03*
D42*
Y336685D02*
D03*
D43*
X156000Y315000D02*
D03*
X176000D02*
D03*
X196000D02*
D03*
X186000D02*
D03*
X166000D02*
D03*
X146000D02*
D03*
X136000D02*
D03*
X186000Y362244D02*
D03*
X166000D02*
D03*
X146000D02*
D03*
X156000D02*
D03*
X176000D02*
D03*
X196000D02*
D03*
X206000D02*
D03*
D44*
Y315000D02*
D03*
X136000Y362244D02*
D03*
D45*
X185127Y292234D02*
D03*
X165043Y296331D02*
D03*
X163963Y288762D02*
D03*
X165000Y292000D02*
D03*
X130000Y270000D02*
D03*
X215282Y253903D02*
D03*
X214000Y154000D02*
D03*
X212000Y173000D02*
D03*
X214000Y165000D02*
D03*
X202000Y278000D02*
D03*
X201719Y291821D02*
D03*
X197000Y278000D02*
D03*
X197328Y291592D02*
D03*
X187000Y117000D02*
D03*
X119941Y164164D02*
D03*
X127000Y151000D02*
D03*
X136977Y325514D02*
D03*
X220000Y332000D02*
D03*
X219821Y319442D02*
D03*
X112000Y250000D02*
D03*
X156000Y304000D02*
D03*
X221000Y235000D02*
D03*
X220841Y193841D02*
D03*
X223000Y163000D02*
D03*
X181209Y273209D02*
D03*
X226000Y172000D02*
D03*
Y209000D02*
D03*
Y246000D02*
D03*
X112000Y258000D02*
D03*
X114000Y221000D02*
D03*
X113000Y184000D02*
D03*
X221000Y292000D02*
D03*
X234000Y254000D02*
D03*
X181000Y269600D02*
D03*
X120000Y196000D02*
D03*
X121000Y266000D02*
D03*
Y236000D02*
D03*
X112000Y213000D02*
D03*
Y176000D02*
D03*
Y139000D02*
D03*
X229000Y180000D02*
D03*
Y217000D02*
D03*
Y254000D02*
D03*
X228000Y144000D02*
D03*
X227000Y135000D02*
D03*
X113000Y147000D02*
D03*
D46*
X111100Y111335D02*
D03*
X111240Y359764D02*
D03*
X230832Y111126D02*
D03*
X230783Y359754D02*
D03*
M02*
