G04*
G04 #@! TF.GenerationSoftware,Altium Limited,Altium Designer,21.8.1 (53)*
G04*
G04 Layer_Color=16711935*
%FSLAX25Y25*%
%MOIN*%
G70*
G04*
G04 #@! TF.SameCoordinates,1476896B-5F1A-493A-A4EA-86BB9D18E634*
G04*
G04*
G04 #@! TF.FilePolarity,Negative*
G04*
G01*
G75*
%ADD29C,0.07355*%
%ADD30C,0.07237*%
%ADD31R,0.07887X0.07887*%
%ADD32C,0.07887*%
%ADD33C,0.07099*%
G04:AMPARAMS|DCode=34|XSize=70.99mil|YSize=70.99mil|CornerRadius=19.75mil|HoleSize=0mil|Usage=FLASHONLY|Rotation=180.000|XOffset=0mil|YOffset=0mil|HoleType=Round|Shape=RoundedRectangle|*
%AMROUNDEDRECTD34*
21,1,0.07099,0.03150,0,0,180.0*
21,1,0.03150,0.07099,0,0,180.0*
1,1,0.03950,-0.01575,0.01575*
1,1,0.03950,0.01575,0.01575*
1,1,0.03950,0.01575,-0.01575*
1,1,0.03950,-0.01575,-0.01575*
%
%ADD34ROUNDEDRECTD34*%
D29*
X199000Y114000D02*
D03*
Y124000D02*
D03*
Y134000D02*
D03*
Y144000D02*
D03*
Y154000D02*
D03*
Y164000D02*
D03*
Y174000D02*
D03*
Y184000D02*
D03*
Y194000D02*
D03*
Y204000D02*
D03*
Y214000D02*
D03*
Y224000D02*
D03*
Y234000D02*
D03*
Y244000D02*
D03*
X189000D02*
D03*
X179000D02*
D03*
X169000D02*
D03*
X159000D02*
D03*
X149000D02*
D03*
X139000D02*
D03*
Y234000D02*
D03*
Y224000D02*
D03*
Y214000D02*
D03*
Y204000D02*
D03*
Y194000D02*
D03*
Y184000D02*
D03*
Y174000D02*
D03*
Y164000D02*
D03*
Y154000D02*
D03*
Y144000D02*
D03*
Y134000D02*
D03*
Y124000D02*
D03*
Y114000D02*
D03*
D30*
X228000Y336000D02*
D03*
Y326000D02*
D03*
Y316000D02*
D03*
D31*
X110000Y317000D02*
D03*
D32*
Y336685D02*
D03*
D33*
X156000Y315000D02*
D03*
X176000D02*
D03*
X196000D02*
D03*
X186000D02*
D03*
X166000D02*
D03*
X146000D02*
D03*
X136000D02*
D03*
X186000Y362244D02*
D03*
X166000D02*
D03*
X146000D02*
D03*
X156000D02*
D03*
X176000D02*
D03*
X196000D02*
D03*
X206000D02*
D03*
D34*
Y315000D02*
D03*
X136000Y362244D02*
D03*
M02*
