G04*
G04 #@! TF.GenerationSoftware,Altium Limited,Altium Designer,21.8.1 (53)*
G04*
G04 Layer_Color=8388736*
%FSLAX25Y25*%
%MOIN*%
G70*
G04*
G04 #@! TF.SameCoordinates,1476896B-5F1A-493A-A4EA-86BB9D18E634*
G04*
G04*
G04 #@! TF.FilePolarity,Negative*
G04*
G01*
G75*
%ADD22R,0.06312X0.04343*%
%ADD23R,0.03320X0.03359*%
%ADD24R,0.06902X0.03162*%
%ADD25R,0.07887X0.05524*%
%ADD26R,0.04540X0.02572*%
%ADD27R,0.03359X0.03320*%
%ADD28R,0.03556X0.03162*%
%ADD29C,0.07355*%
%ADD30C,0.07237*%
%ADD31R,0.07887X0.07887*%
%ADD32C,0.07887*%
%ADD33C,0.07099*%
G04:AMPARAMS|DCode=34|XSize=70.99mil|YSize=70.99mil|CornerRadius=19.75mil|HoleSize=0mil|Usage=FLASHONLY|Rotation=180.000|XOffset=0mil|YOffset=0mil|HoleType=Round|Shape=RoundedRectangle|*
%AMROUNDEDRECTD34*
21,1,0.07099,0.03150,0,0,180.0*
21,1,0.03150,0.07099,0,0,180.0*
1,1,0.03950,-0.01575,0.01575*
1,1,0.03950,0.01575,0.01575*
1,1,0.03950,0.01575,-0.01575*
1,1,0.03950,-0.01575,-0.01575*
%
%ADD34ROUNDEDRECTD34*%
D22*
X131000Y336315D02*
D03*
Y325685D02*
D03*
D23*
X220000Y336228D02*
D03*
Y339772D02*
D03*
Y314772D02*
D03*
Y311228D02*
D03*
D24*
X120256Y261803D02*
D03*
Y257866D02*
D03*
Y253929D02*
D03*
Y249992D02*
D03*
Y246055D02*
D03*
Y242118D02*
D03*
X220744Y261803D02*
D03*
Y257866D02*
D03*
Y253929D02*
D03*
Y249992D02*
D03*
Y246055D02*
D03*
Y242118D02*
D03*
X221000Y131063D02*
D03*
Y135000D02*
D03*
Y138937D02*
D03*
Y142874D02*
D03*
Y146811D02*
D03*
Y150748D02*
D03*
X220740Y279118D02*
D03*
Y283055D02*
D03*
Y286992D02*
D03*
X120256Y150803D02*
D03*
Y146866D02*
D03*
Y142929D02*
D03*
Y138992D02*
D03*
Y135055D02*
D03*
Y131118D02*
D03*
X220744Y205118D02*
D03*
Y209055D02*
D03*
Y212992D02*
D03*
Y216929D02*
D03*
Y220866D02*
D03*
Y224803D02*
D03*
X120256D02*
D03*
Y220866D02*
D03*
Y216929D02*
D03*
Y212992D02*
D03*
Y209055D02*
D03*
Y205118D02*
D03*
Y187803D02*
D03*
Y183866D02*
D03*
Y179929D02*
D03*
Y175992D02*
D03*
Y172055D02*
D03*
Y168118D02*
D03*
X220744D02*
D03*
Y172055D02*
D03*
Y175992D02*
D03*
Y179929D02*
D03*
Y183866D02*
D03*
Y187803D02*
D03*
D25*
X105000Y237000D02*
D03*
Y266921D02*
D03*
X236000Y237000D02*
D03*
Y266921D02*
D03*
X236256Y155866D02*
D03*
Y125945D02*
D03*
X236000Y274000D02*
D03*
Y292110D02*
D03*
X105000Y126000D02*
D03*
Y155921D02*
D03*
X236000Y229921D02*
D03*
Y200000D02*
D03*
X105000D02*
D03*
Y229921D02*
D03*
Y163000D02*
D03*
Y192921D02*
D03*
X236000D02*
D03*
Y163000D02*
D03*
D26*
X170339Y290441D02*
D03*
Y293000D02*
D03*
Y295559D02*
D03*
X179000D02*
D03*
Y293000D02*
D03*
Y290441D02*
D03*
D27*
X156228Y300000D02*
D03*
X159772D02*
D03*
D28*
X155835Y289000D02*
D03*
X160165D02*
D03*
X155835Y294000D02*
D03*
X160165D02*
D03*
D29*
X199000Y114000D02*
D03*
Y124000D02*
D03*
Y134000D02*
D03*
Y144000D02*
D03*
Y154000D02*
D03*
Y164000D02*
D03*
Y174000D02*
D03*
Y184000D02*
D03*
Y194000D02*
D03*
Y204000D02*
D03*
Y214000D02*
D03*
Y224000D02*
D03*
Y234000D02*
D03*
Y244000D02*
D03*
X189000D02*
D03*
X179000D02*
D03*
X169000D02*
D03*
X159000D02*
D03*
X149000D02*
D03*
X139000D02*
D03*
Y234000D02*
D03*
Y224000D02*
D03*
Y214000D02*
D03*
Y204000D02*
D03*
Y194000D02*
D03*
Y184000D02*
D03*
Y174000D02*
D03*
Y164000D02*
D03*
Y154000D02*
D03*
Y144000D02*
D03*
Y134000D02*
D03*
Y124000D02*
D03*
Y114000D02*
D03*
D30*
X228000Y336000D02*
D03*
Y326000D02*
D03*
Y316000D02*
D03*
D31*
X110000Y317000D02*
D03*
D32*
Y336685D02*
D03*
D33*
X156000Y315000D02*
D03*
X176000D02*
D03*
X196000D02*
D03*
X186000D02*
D03*
X166000D02*
D03*
X146000D02*
D03*
X136000D02*
D03*
X186000Y362244D02*
D03*
X166000D02*
D03*
X146000D02*
D03*
X156000D02*
D03*
X176000D02*
D03*
X196000D02*
D03*
X206000D02*
D03*
D34*
Y315000D02*
D03*
X136000Y362244D02*
D03*
M02*
